<svg class="main-svg" xmlns="http://www.w3.org/2000/svg" xmlns:xlink="http://www.w3.org/1999/xlink" width="1600" height="900" style="" viewBox="0 0 1600 900"><rect x="0" y="0" width="1600" height="900" style="fill: rgb(255, 255, 255); fill-opacity: 1;"/><defs id="defs-8a16b8"><g class="clips"/><g class="gradients"/><g class="patterns"/></defs><g class="bglayer"/><g class="layer-below"><g class="imagelayer"/><g class="shapelayer"/></g><g class="cartesianlayer"/><g class="polarlayer"/><g class="smithlayer"/><g class="ternarylayer"/><g class="geolayer"/><g class="funnelarealayer"/><g class="pielayer"/><g class="iciclelayer"/><g class="treemaplayer"/><g class="sunburstlayer"/><g class="glimages"/><g class="sankey" transform="translate(40,80)matrix(1 0 0 1 0 0)" style="box-sizing: content-box; position: absolute; left: 0px; shape-rendering: geometricprecision; pointer-events: none;"><g class="sankey-links" style="fill: none;"><path class="sankey-link" d="M635.3409680975494,393.93407466568254C758.7585979236669,393.93407466568254 758.7585979236669,393.4900854035954 882.1762277497844,393.4900854035954L882.1762277497844,488.0579574766825C758.7585979236669,488.0579574766825 758.7585979236669,488.5019467387696 635.3409680975494,488.5019467387696Z" style="stroke: rgb(68, 68, 68); stroke-opacity: 1; fill: rgb(0, 0, 0); fill-opacity: 0.2; stroke-width: 0; opacity: 1;"/><path class="sankey-link" d="M368.5057084453142,325.8174335144098C625.3409680975493,325.8174335144098 625.3409680975493,312.39540986832554 882.1762277497844,312.39540986832554L882.1762277497844,393.4900854035953C625.3409680975493,393.4900854035953 625.3409680975493,406.91210904967954 368.5057084453142,406.91210904967954Z" style="stroke: rgb(68, 68, 68); stroke-opacity: 1; fill: rgb(0, 0, 0); fill-opacity: 0.2; stroke-width: 0; opacity: 1;"/><path class="sankey-link" d="M368.5057084453142,406.9121090496796C491.9233382714318,406.9121090496796 491.9233382714318,388.6735750255789 615.3409680975494,388.6735750255789L615.3409680975494,467.89142033023427C491.9233382714318,467.89142033023427 491.9233382714318,486.129954354335 368.5057084453142,486.129954354335Z" style="stroke: rgb(68, 68, 68); stroke-opacity: 1; fill: rgb(0, 0, 0); fill-opacity: 0.2; stroke-width: 0; opacity: 1;"/><path class="sankey-link" d="M 748.7585979236669 475.5610955350966  L 743.7585979236669 475.5610955350966 A 80.11716988276709 80.11716988276709 0 0 0 663.6414280408999 555.6782654178637 L 663.6414280408999 681.8877021179886 A 80.11716988276709 80.11716988276709 0 0 0 743.7585979236669 762.0048720007557 L 1307.429117228137 762.0048720007557 A 105.36565377370331 105.36565377370331 0 0 0 1412.7947710018404 656.6392182270524 L 1412.7947710018404 152.04379849120488 A 105.36565377370331 105.36565377370331 0 0 0 1307.429117228137 46.67814471750158 L 1302.429117228137 46.67814471750158 L 1302.429117228137 109.41905518469609 L 1307.429117228137 109.41905518469609 A 42.624743306508805 42.624743306508805 0 0 1 1350.0538605346458 152.04379849120488 L 1350.0538605346458 656.6392182270524 A 42.624743306508805 42.624743306508805 0 0 1 1307.429117228137 699.2639615335612 L 743.7585979236669 699.2639615335612 A 17.376259415572573 17.376259415572573 0 0 1 726.3823385080943 681.8877021179886 L 726.3823385080943 555.6782654178637 A 17.376259415572573 17.376259415572573 0 0 1 743.7585979236669 538.3020060022911 L 748.7585979236669 538.3020060022911Z" style="stroke: rgb(68, 68, 68); stroke-opacity: 1; fill: rgb(0, 0, 0); fill-opacity: 0.2; stroke-width: 0; opacity: 1;"/><path class="sankey-link" d="M 882.1762277497844 511.28124656600824  L 877.1762277497844 511.28124656600824 A 44.397018851855506 44.397018851855506 0 0 0 832.7792088979289 555.6782654178637 L 832.7792088979289 637.4688957930488 A 44.397018851855506 44.397018851855506 0 0 0 877.1762277497844 681.8659146449043 L 1307.429117228137 681.8659146449043 A 42.624743306508805 42.624743306508805 0 0 0 1350.0538605346458 639.2411713383954 L 1350.0538605346458 152.04379849120497 A 42.624743306508805 42.624743306508805 0 0 0 1307.429117228137 109.41905518469615 L 1302.429117228137 109.41905518469615 L 1302.429117228137 136.0061335672985 L 1307.429117228137 136.0061335672985 A 16.03766492390648 16.03766492390648 0 0 1 1323.4667821520436 152.04379849120497 L 1323.4667821520436 639.2411713383954 A 16.03766492390648 16.03766492390648 0 0 1 1307.429117228137 655.2788362623019 L 877.1762277497844 655.2788362623019 A 17.809940469253174 17.809940469253174 0 0 1 859.3662872805313 637.4688957930488 L 859.3662872805313 555.6782654178637 A 17.809940469253174 17.809940469253174 0 0 1 877.1762277497844 537.8683249486106 L 882.1762277497844 537.8683249486106Z" style="stroke: rgb(68, 68, 68); stroke-opacity: 1; fill: rgb(0, 0, 0); fill-opacity: 0.2; stroke-width: 0; opacity: 1;"/><path class="sankey-link" d="M 81.67044879307906 119.74714370757857  L 76.67044879307906 119.74714370757857 A 32.29665478362634 32.29665478362634 0 0 0 44.37379400945272 152.0437984912049 L 44.37379400945272 611.3431097366448 A 32.29665478362634 32.29665478362634 0 0 0 76.67044879307906 643.6397645202712 L 373.5057084453142 643.6397645202712 A 42.399067172462786 42.399067172462786 0 0 0 415.904775617777 601.2406973478085 L 415.904775617777 555.6782654178638 A 42.399067172462786 42.399067172462786 0 0 0 373.5057084453142 513.2791982454011 L 368.5057084453142 513.2791982454011 L 368.5057084453142 534.2328407337585 L 373.5057084453142 534.2328407337585 A 21.445424684105397 21.445424684105397 0 0 1 394.95113312941965 555.6782654178638 L 394.95113312941965 601.2406973478085 A 21.445424684105397 21.445424684105397 0 0 1 373.5057084453142 622.6861220319138 L 76.67044879307906 622.6861220319138 A 11.343012295268954 11.343012295268954 0 0 1 65.32743649781011 611.3431097366448 L 65.32743649781011 152.0437984912049 A 11.343012295268954 11.343012295268954 0 0 1 76.67044879307906 140.70078619593596 L 81.67044879307906 140.70078619593596Z" style="stroke: rgb(68, 68, 68); stroke-opacity: 1; fill: rgb(0, 0, 0); fill-opacity: 0.2; stroke-width: 0; opacity: 1;"/><path class="sankey-link" d="M 615.3409680975494 522.4987862142661  L 610.3409680975494 522.4987862142661 A 33.17947920359754 33.17947920359754 0 0 0 577.1614888939519 555.6782654178637 L 577.1614888939519 574.7441839390647 A 33.17947920359754 33.17947920359754 0 0 0 610.3409680975494 607.9236631426622 L 907.1762277497844 607.9236631426622 A 34.24895582578951 34.24895582578951 0 0 0 941.4251835755739 573.6747073168727 L 941.4251835755739 555.6782654178636 A 34.24895582578951 34.24895582578951 0 0 0 907.1762277497844 521.4293095920741 L 902.1762277497844 521.4293095920741 L 902.1762277497844 539.8493417141922 L 907.1762277497844 539.8493417141922 A 15.828923703671418 15.828923703671418 0 0 1 923.0051514534558 555.6782654178636 L 923.0051514534558 573.6747073168727 A 15.828923703671418 15.828923703671418 0 0 1 907.1762277497844 589.5036310205442 L 610.3409680975494 589.5036310205442 A 14.759447081479447 14.759447081479447 0 0 1 595.5815210160699 574.7441839390647 L 595.5815210160699 555.6782654178637 A 14.759447081479447 14.759447081479447 0 0 1 610.3409680975494 540.9188183363842 L 615.3409680975494 540.9188183363842Z" style="stroke: rgb(68, 68, 68); stroke-opacity: 1; fill: rgb(0, 0, 0); fill-opacity: 0.2; stroke-width: 0; opacity: 1;"/><path class="sankey-link" d="M 348.5057084453142 528.5467593465794  L 343.5057084453142 528.5467593465794 A 27.13150607128439 27.13150607128439 0 0 0 316.37420237402984 555.6782654178637 L 316.37420237402984 595.5546159606295 A 27.13150607128439 27.13150607128439 0 0 0 343.5057084453142 622.6861220319139 L 640.3409680975494 622.6861220319139 A 33.04768139611227 33.04768139611227 0 0 0 673.3886494936617 589.6384406358017 L 673.3886494936617 555.6782654178636 A 33.04768139611227 33.04768139611227 0 0 0 640.3409680975494 522.6305840217514 L 635.3409680975494 522.6305840217514 L 635.3409680975494 537.3930429110029 L 640.3409680975494 537.3930429110029 A 18.28522250686069 18.28522250686069 0 0 1 658.6261906044101 555.6782654178636 L 658.6261906044101 589.6384406358017 A 18.28522250686069 18.28522250686069 0 0 1 640.3409680975494 607.9236631426623 L 343.5057084453142 607.9236631426623 A 12.369047182032814 12.369047182032814 0 0 1 331.1366612632814 595.5546159606295 L 331.1366612632814 555.6782654178637 A 12.369047182032814 12.369047182032814 0 0 1 343.5057084453142 543.3092182358309 L 348.5057084453142 543.3092182358309Z" style="stroke: rgb(68, 68, 68); stroke-opacity: 1; fill: rgb(0, 0, 0); fill-opacity: 0.2; stroke-width: 0; opacity: 1;"/><path class="sankey-link" d="M368.5057084453142,312.818046412999C825.4674128367257,312.818046412999 825.4674128367257,2.626384241899296 1282.429117228137,2.626384241899296L1282.429117228137,15.625771343310138C825.4674128367257,15.625771343310138 825.4674128367257,325.8174335144099 368.5057084453142,325.8174335144099Z" style="stroke: rgb(68, 68, 68); stroke-opacity: 1; fill: rgb(0, 0, 0); fill-opacity: 0.2; stroke-width: 0; opacity: 1;"/><path class="sankey-link" d="M 348.5057084453142 499.73752575173944  L 343.5057084453142 499.73752575173944 A 55.94073966612449 55.94073966612449 0 0 0 287.5649687791897 555.6782654178639 L 287.5649687791897 746.8316239818083 A 55.94073966612449 55.94073966612449 0 0 0 343.5057084453142 802.7723636479328 L 1307.429117228137 802.7723636479328 A 131.59231301237244 131.59231301237244 0 0 0 1439.0214302405095 671.1800506355604 L 1439.0214302405095 152.0437984912049 A 131.59231301237244 131.59231301237244 0 0 0 1307.429117228137 20.451485478832474 L 1302.429117228137 20.451485478832474 L 1302.429117228137 32.640941919719275 L 1307.429117228137 32.640941919719275 A 119.40285657148564 119.40285657148564 0 0 1 1426.8319737996228 152.0437984912049 L 1426.8319737996228 671.1800506355604 A 119.40285657148564 119.40285657148564 0 0 1 1307.429117228137 790.5829072070461 L 343.5057084453142 790.5829072070461 A 43.75128322523769 43.75128322523769 0 0 1 299.75442522007654 746.8316239818083 L 299.75442522007654 555.6782654178639 A 43.75128322523769 43.75128322523769 0 0 1 343.5057084453142 511.92698219262627 L 348.5057084453142 511.92698219262627Z" style="stroke: rgb(68, 68, 68); stroke-opacity: 1; fill: rgb(0, 0, 0); fill-opacity: 0.2; stroke-width: 0; opacity: 1;"/><path class="sankey-link" d="M635.3409680975494,382.0560733787973C958.8850426628433,382.0560733787973 958.8850426628433,17.225016247544893 1282.429117228137,17.225016247544893L1282.429117228137,29.103017534430172C958.8850426628433,29.103017534430172 958.8850426628433,393.93407466568254 635.3409680975494,393.93407466568254Z" style="stroke: rgb(68, 68, 68); stroke-opacity: 1; fill: rgb(0, 0, 0); fill-opacity: 0.2; stroke-width: 0; opacity: 1;"/><path class="sankey-link" d="M 615.3409680975494 505.93018195204604  L 610.3409680975494 505.93018195204604 A 49.74808346581773 49.74808346581773 0 0 0 560.5928846317317 555.6782654178637 L 560.5928846317317 734.0667486216494 A 49.74808346581773 49.74808346581773 0 0 0 610.3409680975494 783.814832087467 L 1307.429117228137 783.814832087467 A 117.21309858566883 117.21309858566883 0 0 0 1424.642215813806 666.6017335017982 L 1424.642215813806 152.0437984912049 A 117.21309858566883 117.21309858566883 0 0 0 1307.429117228137 34.83069990553607 L 1302.429117228137 34.83069990553607 L 1302.429117228137 46.67814471750159 L 1307.429117228137 46.67814471750159 A 105.36565377370331 105.36565377370331 0 0 1 1412.7947710018404 152.0437984912049 L 1412.7947710018404 666.6017335017982 A 105.36565377370331 105.36565377370331 0 0 1 1307.429117228137 771.9673872755016 L 610.3409680975494 771.9673872755016 A 37.90063865385221 37.90063865385221 0 0 1 572.4403294436972 734.0667486216494 L 572.4403294436972 555.6782654178637 A 37.90063865385221 37.90063865385221 0 0 1 610.3409680975494 517.7776267640115 L 615.3409680975494 517.7776267640115Z" style="stroke: rgb(68, 68, 68); stroke-opacity: 1; fill: rgb(0, 0, 0); fill-opacity: 0.2; stroke-width: 0; opacity: 1;"/><path class="sankey-link" d="M 215.08807861919664 534.2328407337584  L 210.08807861919664 534.2328407337584 A 21.445424684105397 21.445424684105397 0 0 0 188.64265393509126 555.6782654178637 L 188.64265393509126 563.0473125998967 A 21.445424684105397 21.445424684105397 0 0 0 210.08807861919664 584.492737284002 L 373.5057084453142 584.492737284002 A 21.445424684105397 21.445424684105397 0 0 0 394.95113312941965 563.0473125998967 L 394.95113312941965 555.6782654178637 A 21.445424684105397 21.445424684105397 0 0 0 373.5057084453142 534.2328407337584 L 368.5057084453142 534.2328407337584 L 368.5057084453142 545.6782654178637 L 373.5057084453142 545.6782654178637 A 10 10 0 0 1 383.5057084453142 555.6782654178637 L 383.5057084453142 563.0473125998967 A 10 10 0 0 1 373.5057084453142 573.0473125998967 L 210.08807861919664 573.0473125998967 A 10 10 0 0 1 200.08807861919664 563.0473125998967 L 200.08807861919664 555.6782654178637 A 10 10 0 0 1 210.08807861919664 545.6782654178637 L 215.08807861919664 545.6782654178637Z" style="stroke: rgb(68, 68, 68); stroke-opacity: 1; fill: rgb(0, 0, 0); fill-opacity: 0.2; stroke-width: 0; opacity: 1;"/><path class="sankey-link" d="M 215.08807861919664 501.47850852156574  L 210.08807861919664 501.47850852156574 A 54.19975689629804 54.19975689629804 0 0 0 155.88832172289858 555.6782654178638 L 155.88832172289858 760.9395116372364 A 54.19975689629804 54.19975689629804 0 0 0 210.08807861919664 815.1392685335345 L 1307.429117228137 815.1392685335345 A 142.72480994127537 142.72480994127537 0 0 0 1450.1539271694126 672.414458592259 L 1450.1539271694126 152.04379849120488 A 142.72480994127537 142.72480994127537 0 0 0 1307.429117228137 9.318988549929514 L 1302.429117228137 9.318988549929514 L 1302.429117228137 20.451485478832442 L 1307.429117228137 20.451485478832442 A 131.59231301237244 131.59231301237244 0 0 1 1439.0214302405095 152.04379849120488 L 1439.0214302405095 672.414458592259 A 131.59231301237244 131.59231301237244 0 0 1 1307.429117228137 804.0067716046315 L 210.08807861919664 804.0067716046315 A 43.06725996739512 43.06725996739512 0 0 1 167.0208186518015 760.9395116372364 L 167.0208186518015 555.6782654178638 A 43.06725996739512 43.06725996739512 0 0 1 210.08807861919664 512.6110054504687 L 215.08807861919664 512.6110054504687Z" style="stroke: rgb(68, 68, 68); stroke-opacity: 1; fill: rgb(0, 0, 0); fill-opacity: 0.2; stroke-width: 0; opacity: 1;"/><path class="sankey-link" d="M368.5057084453142,486.129954354335C558.6321531844906,486.129954354335 558.6321531844906,448.002836660466 748.7585979236669,448.002836660466L748.7585979236669,457.9837594502239C558.6321531844906,457.9837594502239 558.6321531844906,496.11087714409285 368.5057084453142,496.11087714409285Z" style="stroke: rgb(68, 68, 68); stroke-opacity: 1; fill: rgb(0, 0, 0); fill-opacity: 0.2; stroke-width: 0; opacity: 1;"/><path class="sankey-link" d="M635.3409680975494,495.1558952652749C692.0497830106082,495.1558952652749 692.0497830106082,465.96746686118956 748.7585979236669,465.96746686118956L748.7585979236669,475.5610955350968C692.0497830106082,475.5610955350968 692.0497830106082,504.74952393918215 635.3409680975494,504.74952393918215Z" style="stroke: rgb(68, 68, 68); stroke-opacity: 1; fill: rgb(0, 0, 0); fill-opacity: 0.2; stroke-width: 0; opacity: 1;"/><path class="sankey-link" d="M 215.08807861919664 523.2737425962677  L 210.08807861919664 523.2737425962677 A 32.40452282159613 32.40452282159613 0 0 0 177.6835557976005 555.6782654178638 L 177.6835557976005 632.4355448881921 A 32.40452282159613 32.40452282159613 0 0 0 210.08807861919664 664.8400677097883 L 640.3409680975494 664.8400677097883 A 42.60891284359856 42.60891284359856 0 0 0 682.949880941148 622.2311548661897 L 682.949880941148 555.6782654178637 A 42.60891284359856 42.60891284359856 0 0 0 640.3409680975494 513.0693525742652 L 635.3409680975494 513.0693525742652 L 635.3409680975494 522.6305840217515 L 640.3409680975494 522.6305840217515 A 33.04768139611227 33.04768139611227 0 0 1 673.3886494936617 555.6782654178637 L 673.3886494936617 622.2311548661897 A 33.04768139611227 33.04768139611227 0 0 1 640.3409680975494 655.278836262302 L 210.08807861919664 655.278836262302 A 22.84329137410984 22.84329137410984 0 0 1 187.2447872450868 632.4355448881921 L 187.2447872450868 555.6782654178638 A 22.84329137410984 22.84329137410984 0 0 1 210.08807861919664 532.834974043754 L 215.08807861919664 532.834974043754Z" style="stroke: rgb(68, 68, 68); stroke-opacity: 1; fill: rgb(0, 0, 0); fill-opacity: 0.2; stroke-width: 0; opacity: 1;"/><path class="sankey-link" d="M 81.67044879307906 93.7417427993526  L 76.67044879307906 93.7417427993526 A 58.3020556918523 58.3020556918523 0 0 0 18.368393101226758 152.04379849120488 L 18.368393101226758 766.1562013916118 A 58.3020556918523 58.3020556918523 0 0 0 76.67044879307906 824.4582570834641 L 1307.429117228137 824.4582570834641 A 152.0437984912049 152.0437984912049 0 0 0 1459.472915719342 672.4144585922592 L 1459.472915719342 152.04379849120485 A 152.0437984912049 152.0437984912049 0 0 0 1307.429117228137 -7.016609515630989e-14 L 1302.429117228137 -7.016609515630989e-14 L 1302.429117228137 9.318988549929482 L 1307.429117228137 9.318988549929482 A 142.72480994127537 142.72480994127537 0 0 1 1450.1539271694123 152.04379849120485 L 1450.1539271694123 672.4144585922592 A 142.72480994127537 142.72480994127537 0 0 1 1307.429117228137 815.1392685335345 L 76.67044879307906 815.1392685335345 A 48.983067141922746 48.983067141922746 0 0 1 27.687381651156315 766.1562013916118 L 27.687381651156315 152.04379849120488 A 48.983067141922746 48.983067141922746 0 0 1 76.67044879307906 103.06073134928214 L 81.67044879307906 103.06073134928214Z" style="stroke: rgb(68, 68, 68); stroke-opacity: 1; fill: rgb(0, 0, 0); fill-opacity: 0.2; stroke-width: 0; opacity: 1;"/><path class="sankey-link" d="M768.7585979236669,459.7284237230527C825.4674128367257,459.7284237230527 825.4674128367257,488.05795747668253 882.1762277497844,488.05795747668253L882.1762277497844,497.372160072709C825.4674128367257,497.372160072709 825.4674128367257,469.04262631907915 768.7585979236669,469.04262631907915Z" style="stroke: rgb(68, 68, 68); stroke-opacity: 1; fill: rgb(0, 0, 0); fill-opacity: 0.2; stroke-width: 0; opacity: 1;"/><path class="sankey-link" d="M 348.5057084453142 514.537167821315  L 343.5057084453142 514.537167821315 A 41.14109759654885 41.14109759654885 0 0 0 302.3646108487653 555.6782654178638 L 302.3646108487653 658.1228639370123 A 41.14109759654885 41.14109759654885 0 0 0 343.5057084453142 699.2639615335611 L 907.1762277497844 699.2639615335611 A 48.35389827881567 48.35389827881567 0 0 0 955.5301260286001 650.9100632547454 L 955.5301260286001 555.6782654178639 A 48.35389827881567 48.35389827881567 0 0 0 907.1762277497844 507.3243671390482 L 902.1762277497844 507.3243671390482 L 902.1762277497844 516.5693574786299 L 907.1762277497844 516.5693574786299 A 39.108907939233994 39.108907939233994 0 0 1 946.2851356890185 555.6782654178639 L 946.2851356890185 650.9100632547454 A 39.108907939233994 39.108907939233994 0 0 1 907.1762277497844 690.0189711939795 L 343.5057084453142 690.0189711939795 A 31.896107256967177 31.896107256967177 0 0 1 311.609601188347 658.1228639370123 L 311.609601188347 555.6782654178638 A 31.896107256967177 31.896107256967177 0 0 1 343.5057084453142 523.7821581608966 L 348.5057084453142 523.7821581608966Z" style="stroke: rgb(68, 68, 68); stroke-opacity: 1; fill: rgb(0, 0, 0); fill-opacity: 0.2; stroke-width: 0; opacity: 1;"/><path class="sankey-link" d="M768.7585979236669,445.0156651243332C1025.593857575902,445.0156651243332 1025.593857575902,33.42731096102805 1282.429117228137,33.42731096102805L1282.429117228137,42.59903939086232C1025.593857575902,42.59903939086232 1025.593857575902,454.1873935541675 768.7585979236669,454.1873935541675Z" style="stroke: rgb(68, 68, 68); stroke-opacity: 1; fill: rgb(0, 0, 0); fill-opacity: 0.2; stroke-width: 0; opacity: 1;"/><path class="sankey-link" d="M101.67044879307906,98.40142114946757C491.9233382714317,98.40142114946757 491.9233382714317,303.49758526186844 882.1762277497844,303.49758526186844L882.1762277497844,312.39540986832554C491.9233382714317,312.39540986832554 491.9233382714317,107.29924575592462 101.67044879307906,107.29924575592462Z" style="stroke: rgb(68, 68, 68); stroke-opacity: 1; fill: rgb(0, 0, 0); fill-opacity: 0.2; stroke-width: 0; opacity: 1;"/><path class="sankey-link" d="M 81.67044879307906 109.41279662959205  L 76.67044879307906 109.41279662959205 A 42.63100186161285 42.63100186161285 0 0 0 34.03944693146621 152.04379849120488 L 34.03944693146621 664.9527883070314 A 42.63100186161285 42.63100186161285 0 0 0 76.67044879307906 707.5837901686442 L 640.3409680975494 707.5837901686442 A 50.928741478681644 50.928741478681644 0 0 0 691.269709576231 656.6550486899627 L 691.269709576231 555.6782654178638 A 50.928741478681644 50.928741478681644 0 0 0 640.3409680975494 504.74952393918215 L 635.3409680975494 504.74952393918215 L 635.3409680975494 513.0693525742653 L 640.3409680975494 513.0693525742653 A 42.60891284359856 42.60891284359856 0 0 1 682.949880941148 555.6782654178638 L 682.949880941148 656.6550486899627 A 42.60891284359856 42.60891284359856 0 0 1 640.3409680975494 699.2639615335612 L 76.67044879307906 699.2639615335612 A 34.31117322652977 34.31117322652977 0 0 1 42.35927556654929 664.9527883070314 L 42.35927556654929 152.04379849120488 A 34.31117322652977 34.31117322652977 0 0 1 76.67044879307906 117.73262526467512 L 81.67044879307906 117.73262526467512Z" style="stroke: rgb(68, 68, 68); stroke-opacity: 1; fill: rgb(0, 0, 0); fill-opacity: 0.2; stroke-width: 0; opacity: 1;"/><path class="sankey-link" d="M 481.92333827143176 537.393042911003  L 476.92333827143176 537.393042911003 A 18.28522250686069 18.28522250686069 0 0 0 458.63811576457107 555.6782654178637 L 458.63811576457107 565.4377124993433 A 18.28522250686069 18.28522250686069 0 0 0 476.92333827143176 583.722935006204 L 640.3409680975494 583.722935006204 A 18.28522250686069 18.28522250686069 0 0 0 658.6261906044101 565.4377124993433 L 658.6261906044101 555.6782654178637 A 18.28522250686069 18.28522250686069 0 0 0 640.3409680975494 537.393042911003 L 635.3409680975494 537.393042911003 L 635.3409680975494 545.6782654178637 L 640.3409680975494 545.6782654178637 A 10 10 0 0 1 650.3409680975494 555.6782654178637 L 650.3409680975494 565.4377124993433 A 10 10 0 0 1 640.3409680975494 575.4377124993433 L 476.92333827143176 575.4377124993433 A 10 10 0 0 1 466.92333827143176 565.4377124993433 L 466.92333827143176 555.6782654178637 A 10 10 0 0 1 476.92333827143176 545.6782654178637 L 481.92333827143176 545.6782654178637Z" style="stroke: rgb(68, 68, 68); stroke-opacity: 1; fill: rgb(0, 0, 0); fill-opacity: 0.2; stroke-width: 0; opacity: 1;"/><path class="sankey-link" d="M368.5057084453142,496.1108771440928C758.7585979236669,496.1108771440928 758.7585979236669,535.0372491397786 1149.0114874020196,535.0372491397786L1149.0114874020196,542.4694674009875C758.7585979236669,542.4694674009875 758.7585979236669,503.54309540530153 368.5057084453142,503.54309540530153Z" style="stroke: rgb(68, 68, 68); stroke-opacity: 1; fill: rgb(0, 0, 0); fill-opacity: 0.2; stroke-width: 0; opacity: 1;"/><path class="sankey-link" d="M501.92333827143176,529.5109449829033C692.049783010608,529.5109449829033 692.049783010608,504.1464937473921 882.1762277497844,504.1464937473921L882.1762277497844,511.28124656600846C692.049783010608,511.28124656600846 692.049783010608,536.6456978015196 501.92333827143176,536.6456978015196Z" style="stroke: rgb(68, 68, 68); stroke-opacity: 1; fill: rgb(0, 0, 0); fill-opacity: 0.2; stroke-width: 0; opacity: 1;"/><path class="sankey-link" d="M 882.1762277497844 538.6616888456239  L 877.1762277497844 538.6616888456239 A 17.016576572239853 17.016576572239853 0 0 0 860.1596511775444 555.6782654178638 L 860.1596511775444 571.2666362030146 A 17.016576572239853 17.016576572239853 0 0 0 877.1762277497844 588.2832127752546 L 1040.5938575759021 588.2832127752546 A 17.016576572239853 17.016576572239853 0 0 0 1057.610434148142 571.2666362030146 L 1057.610434148142 555.6782654178638 A 17.016576572239853 17.016576572239853 0 0 0 1040.5938575759021 538.6616888456239 L 1035.5938575759021 538.6616888456239 L 1035.5938575759021 545.6782654178638 L 1040.5938575759021 545.6782654178638 A 10 10 0 0 1 1050.5938575759021 555.6782654178638 L 1050.5938575759021 571.2666362030146 A 10 10 0 0 1 1040.5938575759021 581.2666362030146 L 877.1762277497844 581.2666362030146 A 10 10 0 0 1 867.1762277497844 571.2666362030146 L 867.1762277497844 555.6782654178638 A 10 10 0 0 1 877.1762277497844 545.6782654178638 L 882.1762277497844 545.6782654178638Z" style="stroke: rgb(68, 68, 68); stroke-opacity: 1; fill: rgb(0, 0, 0); fill-opacity: 0.2; stroke-width: 0; opacity: 1;"/><path class="sankey-link" d="M235.08807861919664,508.12472589176605C558.6321531844906,508.12472589176605 558.6321531844906,497.37216007270905 882.1762277497844,497.37216007270905L882.1762277497844,504.1464937473922C558.6321531844906,504.1464937473922 558.6321531844906,514.8990595664492 235.08807861919664,514.8990595664492Z" style="stroke: rgb(68, 68, 68); stroke-opacity: 1; fill: rgb(0, 0, 0); fill-opacity: 0.2; stroke-width: 0; opacity: 1;"/><path class="sankey-link" d="M101.67044879307906,110.28641729205734C358.5057084453142,110.28641729205734 358.5057084453142,382.05607337879724 615.3409680975494,382.05607337879724L615.3409680975494,388.6735750255789C358.5057084453142,388.6735750255789 358.5057084453142,116.90391893883898 101.67044879307906,116.90391893883898Z" style="stroke: rgb(68, 68, 68); stroke-opacity: 1; fill: rgb(0, 0, 0); fill-opacity: 0.2; stroke-width: 0; opacity: 1;"/><path class="sankey-link" d="M902.1762277497844,306.4350565074691C1025.593857575902,306.4350565074691 1025.593857575902,517.3693480810474 1149.0114874020196,517.3693480810474L1149.0114874020196,523.8123464855161C1025.593857575902,523.8123464855161 1025.593857575902,312.87805491193785 902.1762277497844,312.87805491193785Z" style="stroke: rgb(68, 68, 68); stroke-opacity: 1; fill: rgb(0, 0, 0); fill-opacity: 0.2; stroke-width: 0; opacity: 1;"/><path class="sankey-link" d="M368.5057084453142,507.22938436158677C425.21452335837296,507.22938436158677 425.21452335837296,518.0033028980577 481.92333827143176,518.0033028980577L481.92333827143176,524.053116781872C425.21452335837296,524.053116781872 425.21452335837296,513.2791982454011 368.5057084453142,513.2791982454011Z" style="stroke: rgb(68, 68, 68); stroke-opacity: 1; fill: rgb(0, 0, 0); fill-opacity: 0.2; stroke-width: 0; opacity: 1;"/><path class="sankey-link" d="M 748.7585979236669 539.8493417141925  L 743.7585979236669 539.8493417141925 A 15.828923703671421 15.828923703671421 0 0 0 727.9296742199955 555.6782654178639 L 727.9296742199955 565.4377124993432 A 15.828923703671421 15.828923703671421 0 0 0 743.7585979236669 581.2666362030146 L 907.1762277497844 581.2666362030146 A 15.828923703671421 15.828923703671421 0 0 0 923.0051514534558 565.4377124993432 L 923.0051514534558 555.6782654178639 A 15.828923703671421 15.828923703671421 0 0 0 907.1762277497844 539.8493417141925 L 902.1762277497844 539.8493417141925 L 902.1762277497844 545.6782654178638 L 907.1762277497844 545.6782654178638 A 10 10 0 0 1 917.1762277497845 555.6782654178639 L 917.1762277497845 565.4377124993432 A 10 10 0 0 1 907.1762277497844 575.4377124993433 L 743.7585979236669 575.4377124993433 A 10 10 0 0 1 733.7585979236668 565.4377124993432 L 733.7585979236668 555.6782654178639 A 10 10 0 0 1 743.7585979236669 545.6782654178638 L 748.7585979236669 545.6782654178638Z" style="stroke: rgb(68, 68, 68); stroke-opacity: 1; fill: rgb(0, 0, 0); fill-opacity: 0.2; stroke-width: 0; opacity: 1;"/><path class="sankey-link" d="M501.92333827143176,523.8219183933223C625.3409680975493,523.8219183933223 625.3409680975493,460.27844027160864 748.7585979236669,460.27844027160864L748.7585979236669,465.9674668611895C625.3409680975493,465.9674668611895 625.3409680975493,529.5109449829032 501.92333827143176,529.5109449829032Z" style="stroke: rgb(68, 68, 68); stroke-opacity: 1; fill: rgb(0, 0, 0); fill-opacity: 0.2; stroke-width: 0; opacity: 1;"/><path class="sankey-link" d="M 1015.5938575759021 538.4783499961053  L 1010.5938575759021 538.4783499961053 A 17.199915421758476 17.199915421758476 0 0 0 993.3939421541437 555.6782654178637 L 993.3939421541437 577.4648146578251 A 17.199915421758476 17.199915421758476 0 0 0 1010.5938575759021 594.6647300795835 L 1307.429117228137 594.6647300795835 A 16.037664923906476 16.037664923906476 0 0 0 1323.4667821520436 578.627065155677 L 1323.4667821520436 152.04379849120488 A 16.037664923906476 16.037664923906476 0 0 0 1307.429117228137 136.0061335672984 L 1302.429117228137 136.0061335672984 L 1302.429117228137 141.16723262633772 L 1307.429117228137 141.16723262633772 A 10.876565864867153 10.876565864867153 0 0 1 1318.3056830930043 152.04379849120488 L 1318.3056830930043 578.627065155677 A 10.876565864867153 10.876565864867153 0 0 1 1307.429117228137 589.5036310205442 L 1010.5938575759021 589.5036310205442 A 12.03881636271915 12.03881636271915 0 0 1 998.555041213183 577.4648146578251 L 998.555041213183 555.6782654178637 A 12.03881636271915 12.03881636271915 0 0 1 1010.5938575759021 543.6394490551446 L 1015.5938575759021 543.6394490551446Z" style="stroke: rgb(68, 68, 68); stroke-opacity: 1; fill: rgb(0, 0, 0); fill-opacity: 0.2; stroke-width: 0; opacity: 1;"/><path class="sankey-link" d="M 215.08807861919664 513.3104910209214  L 210.08807861919664 513.3104910209214 A 42.367774396942536 42.367774396942536 0 0 0 167.7203042222541 555.6782654178639 L 167.7203042222541 729.599612878559 A 42.367774396942536 42.367774396942536 0 0 0 210.08807861919664 771.9673872755016 L 907.1762277497844 771.9673872755016 A 53.50468912944833 53.50468912944833 0 0 0 960.6809168792327 718.4626981460533 L 960.6809168792327 555.6782654178638 A 53.50468912944833 53.50468912944833 0 0 0 907.1762277497844 502.17357628841546 L 902.1762277497844 502.17357628841546 L 902.1762277497844 507.32436713904815 L 907.1762277497844 507.32436713904815 A 48.35389827881567 48.35389827881567 0 0 1 955.5301260286001 555.6782654178638 L 955.5301260286001 718.4626981460533 A 48.35389827881567 48.35389827881567 0 0 1 907.1762277497844 766.816596424869 L 210.08807861919664 766.816596424869 A 37.216983546309876 37.216983546309876 0 0 1 172.87109507288673 729.599612878559 L 172.87109507288673 555.6782654178639 A 37.216983546309876 37.216983546309876 0 0 1 210.08807861919664 518.461281871554 L 215.08807861919664 518.461281871554Z" style="stroke: rgb(68, 68, 68); stroke-opacity: 1; fill: rgb(0, 0, 0); fill-opacity: 0.2; stroke-width: 0; opacity: 1;"/><path class="sankey-link" d="M 481.92333827143176 530.4604046072176  L 476.92333827143176 530.4604046072176 A 25.217860810646233 25.217860810646233 0 0 0 451.7054774607855 555.6782654178638 L 451.7054774607855 630.0609754516557 A 25.217860810646233 25.217860810646233 0 0 0 476.92333827143176 655.278836262302 L 907.1762277497844 655.278836262302 A 39.108907939233994 39.108907939233994 0 0 0 946.2851356890184 616.169928323068 L 946.2851356890184 555.6782654178637 A 39.108907939233994 39.108907939233994 0 0 0 907.1762277497844 516.5693574786297 L 902.1762277497844 516.5693574786297 L 902.1762277497844 521.4293095920742 L 907.1762277497844 521.4293095920742 A 34.248955825789515 34.248955825789515 0 0 1 941.4251835755739 555.6782654178637 L 941.4251835755739 616.169928323068 A 34.248955825789515 34.248955825789515 0 0 1 907.1762277497844 650.4188841488575 L 476.92333827143176 650.4188841488575 A 20.357908697201754 20.357908697201754 0 0 1 456.56542957423 630.0609754516557 L 456.56542957423 555.6782654178638 A 20.357908697201754 20.357908697201754 0 0 1 476.92333827143176 535.3203567206621 L 481.92333827143176 535.3203567206621Z" style="stroke: rgb(68, 68, 68); stroke-opacity: 1; fill: rgb(0, 0, 0); fill-opacity: 0.2; stroke-width: 0; opacity: 1;"/><path class="sankey-link" d="M 215.08807861919664 518.461281871554  L 210.08807861919664 518.461281871554 A 37.216983546309876 37.216983546309876 0 0 0 172.87109507288676 555.6782654178638 L 172.87109507288676 652.8019876476695 A 37.216983546309876 37.216983546309876 0 0 0 210.08807861919664 690.0189711939794 L 773.7585979236669 690.0189711939794 A 26.40919518221705 26.40919518221705 0 0 0 800.1677931058839 663.6097760117624 L 800.1677931058839 555.6782654178638 A 26.40919518221705 26.40919518221705 0 0 0 773.7585979236669 529.2690702356468 L 768.7585979236669 529.2690702356468 L 768.7585979236669 534.0815309603605 L 773.7585979236669 534.0815309603605 A 21.5967344575033 21.5967344575033 0 0 1 795.3553323811702 555.6782654178638 L 795.3553323811702 663.6097760117624 A 21.5967344575033 21.5967344575033 0 0 1 773.7585979236669 685.2065104692657 L 210.08807861919664 685.2065104692657 A 32.40452282159613 32.40452282159613 0 0 1 177.6835557976005 652.8019876476695 L 177.6835557976005 555.6782654178638 A 32.40452282159613 32.40452282159613 0 0 1 210.08807861919664 523.2737425962677 L 215.08807861919664 523.2737425962677Z" style="stroke: rgb(68, 68, 68); stroke-opacity: 1; fill: rgb(0, 0, 0); fill-opacity: 0.2; stroke-width: 0; opacity: 1;"/><path class="sankey-link" d="M635.3409680975494,488.5019467387697C892.1762277497845,488.5019467387697 892.1762277497845,528.8420158873702 1149.0114874020196,528.8420158873702L1149.0114874020196,533.6217112353628C892.1762277497845,533.6217112353628 892.1762277497845,493.2816420867622 635.3409680975494,493.2816420867622Z" style="stroke: rgb(68, 68, 68); stroke-opacity: 1; fill: rgb(0, 0, 0); fill-opacity: 0.2; stroke-width: 0; opacity: 1;"/><path class="sankey-link" d="M 348.5057084453142 523.7821581608966  L 343.5057084453142 523.7821581608966 A 31.89610725696718 31.89610725696718 0 0 0 311.609601188347 555.6782654178638 L 311.609601188347 618.5227768918902 A 31.89610725696718 31.89610725696718 0 0 0 343.5057084453142 650.4188841488574 L 773.7585979236669 650.4188841488574 A 21.5967344575033 21.5967344575033 0 0 0 795.3553323811702 628.8221496913541 L 795.3553323811702 555.6782654178637 A 21.5967344575033 21.5967344575033 0 0 0 773.7585979236669 534.0815309603604 L 768.7585979236669 534.0815309603604 L 768.7585979236669 538.8461321460431 L 773.7585979236669 538.8461321460431 A 16.832133271820513 16.832133271820513 0 0 1 790.5907311954875 555.6782654178637 L 790.5907311954875 628.8221496913541 A 16.832133271820513 16.832133271820513 0 0 1 773.7585979236669 645.6542829631746 L 343.5057084453142 645.6542829631746 A 27.131506071284395 27.131506071284395 0 0 1 316.3742023740298 618.5227768918902 L 316.3742023740298 555.6782654178638 A 27.131506071284395 27.131506071284395 0 0 1 343.5057084453142 528.5467593465794 L 348.5057084453142 528.5467593465794Z" style="stroke: rgb(68, 68, 68); stroke-opacity: 1; fill: rgb(0, 0, 0); fill-opacity: 0.2; stroke-width: 0; opacity: 1;"/><path class="sankey-link" d="M 615.3409680975494 540.9188183363843  L 610.3409680975494 540.9188183363843 A 14.75944708147945 14.75944708147945 0 0 0 595.5815210160699 555.6782654178638 L 595.5815210160699 560.6782654178638 A 14.75944708147945 14.75944708147945 0 0 0 610.3409680975494 575.4377124993433 L 773.7585979236669 575.4377124993433 A 14.75944708147945 14.75944708147945 0 0 0 788.5180450051464 560.6782654178638 L 788.5180450051464 555.6782654178638 A 14.75944708147945 14.75944708147945 0 0 0 773.7585979236669 540.9188183363843 L 768.7585979236669 540.9188183363843 L 768.7585979236669 545.6782654178638 L 773.7585979236669 545.6782654178638 A 10 10 0 0 1 783.7585979236669 555.6782654178638 L 783.7585979236669 560.6782654178638 A 10 10 0 0 1 773.7585979236669 570.6782654178638 L 610.3409680975494 570.6782654178638 A 10 10 0 0 1 600.3409680975494 560.6782654178638 L 600.3409680975494 555.6782654178638 A 10 10 0 0 1 610.3409680975494 545.6782654178638 L 615.3409680975494 545.6782654178638Z" style="stroke: rgb(68, 68, 68); stroke-opacity: 1; fill: rgb(0, 0, 0); fill-opacity: 0.2; stroke-width: 0; opacity: 1;"/><path class="sankey-link" d="M501.92333827143176,519.1040722957698C558.6321531844906,519.1040722957698 558.6321531844906,471.1657491005529 615.3409680975494,471.1657491005529L615.3409680975494,475.8835951981054C558.6321531844906,475.8835951981054 558.6321531844906,523.8219183933224 501.92333827143176,523.8219183933224Z" style="stroke: rgb(68, 68, 68); stroke-opacity: 1; fill: rgb(0, 0, 0); fill-opacity: 0.2; stroke-width: 0; opacity: 1;"/><path class="sankey-link" d="M902.1762277497844,312.8780549119379C958.8850426628433,312.8780549119379 958.8850426628433,523.5623724316544 1015.5938575759021,523.5623724316544L1015.5938575759021,527.286580868864C958.8850426628433,527.286580868864 958.8850426628433,316.60226334914756 902.1762277497844,316.60226334914756Z" style="stroke: rgb(68, 68, 68); stroke-opacity: 1; fill: rgb(0, 0, 0); fill-opacity: 0.2; stroke-width: 0; opacity: 1;"/><path class="sankey-link" d="M368.5057084453142,503.5430954053014C692.0497830106082,503.5430954053014 692.0497830106082,531.7054889226232 1015.5938575759021,531.7054889226232L1015.5938575759021,535.3917778789083C692.0497830106082,535.3917778789083 692.0497830106082,507.22938436158654 368.5057084453142,507.22938436158654Z" style="stroke: rgb(68, 68, 68); stroke-opacity: 1; fill: rgb(0, 0, 0); fill-opacity: 0.2; stroke-width: 0; opacity: 1;"/><path class="sankey-link" d="M1035.5938575759021,523.5623724316545C1159.0114874020196,523.5623724316545 1159.0114874020196,42.59903939086231 1282.429117228137,42.59903939086231L1282.429117228137,46.05597071009901C1159.0114874020196,46.05597071009901 1159.0114874020196,527.0193037508911 1035.5938575759021,527.0193037508911Z" style="stroke: rgb(68, 68, 68); stroke-opacity: 1; fill: rgb(0, 0, 0); fill-opacity: 0.2; stroke-width: 0; opacity: 1;"/><path class="sankey-link" d="M768.7585979236669,454.1873935541675C958.8850426628433,454.1873935541675 958.8850426628433,525.4178499448549 1149.0114874020196,525.4178499448549L1149.0114874020196,528.8420158873703C958.8850426628433,528.8420158873703 958.8850426628433,457.611559496683 768.7585979236669,457.611559496683Z" style="stroke: rgb(68, 68, 68); stroke-opacity: 1; fill: rgb(0, 0, 0); fill-opacity: 0.2; stroke-width: 0; opacity: 1;"/><path class="sankey-link" d="M235.08807861919664,502.5557163000628C425.214523358373,502.5557163000628 425.214523358373,467.8914203302343 615.3409680975494,467.8914203302343L615.3409680975494,471.1657491005529C425.214523358373,471.1657491005529 425.214523358373,505.83004507038135 235.08807861919664,505.83004507038135Z" style="stroke: rgb(68, 68, 68); stroke-opacity: 1; fill: rgb(0, 0, 0); fill-opacity: 0.2; stroke-width: 0; opacity: 1;"/><path class="sankey-link" d="M101.67044879307906,107.2992457559246C425.21452335837296,107.2992457559246 425.21452335837296,445.0156651243332 748.7585979236669,445.0156651243332L748.7585979236669,448.002836660466C425.21452335837296,448.002836660466 425.21452335837296,110.28641729205737 101.67044879307906,110.28641729205737Z" style="stroke: rgb(68, 68, 68); stroke-opacity: 1; fill: rgb(0, 0, 0); fill-opacity: 0.2; stroke-width: 0; opacity: 1;"/><path class="sankey-link" d="M902.1762277497844,303.4975852618685C1092.3026724889608,303.4975852618685 1092.3026724889608,30.489839715427475 1282.429117228137,30.489839715427475L1282.429117228137,33.42731096102807C1092.3026724889608,33.42731096102807 1092.3026724889608,306.4350565074691 902.1762277497844,306.4350565074691Z" style="stroke: rgb(68, 68, 68); stroke-opacity: 1; fill: rgb(0, 0, 0); fill-opacity: 0.2; stroke-width: 0; opacity: 1;"/><path class="sankey-link" d="M 81.67044879307906 104.29513930598084  L 76.67044879307906 104.29513930598084 A 47.74865918522407 47.74865918522407 0 0 0 28.921789607854993 152.0437984912049 L 28.921789607854993 742.8342480218221 A 47.74865918522407 47.74865918522407 0 0 0 76.67044879307906 790.5829072070461 L 1040.5938575759021 790.5829072070461 A 27.243423762556805 27.243423762556805 0 0 0 1067.8372813384588 763.3394834444892 L 1067.8372813384588 555.6782654178638 A 27.243423762556805 27.243423762556805 0 0 0 1040.5938575759021 528.434841655307 L 1035.5938575759021 528.434841655307 L 1035.5938575759021 531.3546416864962 L 1040.5938575759021 531.3546416864962 A 24.323623731367643 24.323623731367643 0 0 1 1064.9174813072698 555.6782654178638 L 1064.9174813072698 763.3394834444892 A 24.323623731367643 24.323623731367643 0 0 1 1040.5938575759021 787.6631071758569 L 76.67044879307906 787.6631071758569 A 44.8288591540349 44.8288591540349 0 0 1 31.841589639044155 742.8342480218221 L 31.841589639044155 152.0437984912049 A 44.8288591540349 44.8288591540349 0 0 1 76.67044879307906 107.21493933717001 L 81.67044879307906 107.21493933717001Z" style="stroke: rgb(68, 68, 68); stroke-opacity: 1; fill: rgb(0, 0, 0); fill-opacity: 0.2; stroke-width: 0; opacity: 1;"/><path class="sankey-link" d="M 615.3409680975494 519.8411091968467  L 610.3409680975494 519.8411091968467 A 35.83715622101711 35.83715622101711 0 0 0 574.5038118765324 555.6782654178637 L 574.5038118765324 589.5066428283163 A 35.83715622101711 35.83715622101711 0 0 0 610.3409680975494 625.3437990493334 L 1040.5938575759021 625.3437990493334 A 20.10130793793573 20.10130793793573 0 0 0 1060.695165513838 605.2424911113977 L 1060.695165513838 555.6782654178637 A 20.10130793793573 20.10130793793573 0 0 0 1040.5938575759021 535.5769574799281 L 1035.5938575759021 535.5769574799281 L 1035.5938575759021 538.2346344973475 L 1040.5938575759021 538.2346344973475 A 17.443630920516163 17.443630920516163 0 0 1 1058.0374884964183 555.6782654178637 L 1058.0374884964183 605.2424911113977 A 17.443630920516163 17.443630920516163 0 0 1 1040.5938575759021 622.6861220319139 L 610.3409680975494 622.6861220319139 A 33.17947920359755 33.17947920359755 0 0 1 577.1614888939519 589.5066428283163 L 577.1614888939519 555.6782654178637 A 33.17947920359755 33.17947920359755 0 0 1 610.3409680975494 522.4987862142661 L 615.3409680975494 522.4987862142661Z" style="stroke: rgb(68, 68, 68); stroke-opacity: 1; fill: rgb(0, 0, 0); fill-opacity: 0.2; stroke-width: 0; opacity: 1;"/><path class="sankey-link" d="M101.67044879307906,93.74174279935264C692.049783010608,93.74174279935264 692.049783010608,1.8207657603852567e-14 1282.429117228137,1.8207657603852567e-14L1282.429117228137,2.626384241899337C692.049783010608,2.626384241899337 692.049783010608,96.36812704125197 101.67044879307906,96.36812704125197Z" style="stroke: rgb(68, 68, 68); stroke-opacity: 1; fill: rgb(0, 0, 0); fill-opacity: 0.2; stroke-width: 0; opacity: 1;"/><path class="sankey-link" d="M 348.5057084453142 511.9682150262528  L 343.5057084453142 511.9682150262528 A 43.71005039161101 43.71005039161101 0 0 0 299.7956580537032 555.6782654178638 L 299.7956580537032 721.8264874393296 A 43.71005039161101 43.71005039161101 0 0 0 343.5057084453142 765.5365378309407 L 1040.5938575759021 765.5365378309407 A 23.947374124524202 23.947374124524202 0 0 0 1064.5412317004264 741.5891637064165 L 1064.5412317004264 555.6782654178639 A 23.947374124524202 23.947374124524202 0 0 0 1040.5938575759021 531.7308912933397 L 1035.5938575759021 531.7308912933397 L 1035.5938575759021 534.2998440884019 L 1040.5938575759021 534.2998440884019 A 21.378421329462043 21.378421329462043 0 0 1 1061.9722789053642 555.6782654178639 L 1061.9722789053642 741.5891637064165 A 21.378421329462043 21.378421329462043 0 0 1 1040.5938575759021 762.9675850358785 L 343.5057084453142 762.9675850358785 A 41.14109759654885 41.14109759654885 0 0 1 302.3646108487654 721.8264874393296 L 302.3646108487654 555.6782654178638 A 41.14109759654885 41.14109759654885 0 0 1 343.5057084453142 514.5371678213149 L 348.5057084453142 514.5371678213149Z" style="stroke: rgb(68, 68, 68); stroke-opacity: 1; fill: rgb(0, 0, 0); fill-opacity: 0.2; stroke-width: 0; opacity: 1;"/><path class="sankey-link" d="M101.67044879307906,117.18997172212406C225.08807861919664,117.18997172212406 225.08807861919664,312.818046412999 348.5057084453142,312.818046412999L348.5057084453142,315.2780267191906C225.08807861919664,315.2780267191906 225.08807861919664,119.64995202831571 101.67044879307906,119.64995202831571Z" style="stroke: rgb(68, 68, 68); stroke-opacity: 1; fill: rgb(0, 0, 0); fill-opacity: 0.2; stroke-width: 0; opacity: 1;"/><path class="sankey-link" d="M 348.5057084453142 543.309218235831  L 343.5057084453142 543.309218235831 A 12.369047182032816 12.369047182032816 0 0 0 331.13666126328144 555.6782654178638 L 331.13666126328144 560.6782654178638 A 12.369047182032816 12.369047182032816 0 0 0 343.5057084453142 573.0473125998966 L 506.92333827143176 573.0473125998966 A 12.369047182032816 12.369047182032816 0 0 0 519.2923854534646 560.6782654178638 L 519.2923854534646 555.6782654178638 A 12.369047182032816 12.369047182032816 0 0 0 506.92333827143176 543.309218235831 L 501.92333827143176 543.309218235831 L 501.92333827143176 545.6782654178638 L 506.92333827143176 545.6782654178638 A 10 10 0 0 1 516.9233382714318 555.6782654178638 L 516.9233382714318 560.6782654178638 A 10 10 0 0 1 506.92333827143176 570.6782654178638 L 343.5057084453142 570.6782654178638 A 10 10 0 0 1 333.5057084453142 560.6782654178638 L 333.5057084453142 555.6782654178638 A 10 10 0 0 1 343.5057084453142 545.6782654178638 L 348.5057084453142 545.6782654178638Z" style="stroke: rgb(68, 68, 68); stroke-opacity: 1; fill: rgb(0, 0, 0); fill-opacity: 0.2; stroke-width: 0; opacity: 1;"/><path class="sankey-link" d="M235.08807861919664,505.83004507038135C491.92333827143176,505.83004507038135 491.92333827143176,457.9837594502239 748.7585979236669,457.9837594502239L748.7585979236669,460.27844027160853C491.92333827143176,460.27844027160853 491.92333827143176,508.124725891766 235.08807861919664,508.124725891766Z" style="stroke: rgb(68, 68, 68); stroke-opacity: 1; fill: rgb(0, 0, 0); fill-opacity: 0.2; stroke-width: 0; opacity: 1;"/><path class="sankey-link" d="M 481.92333827143176 526.0308201947516  L 476.92333827143176 526.0308201947516 A 29.647445223112253 29.647445223112253 0 0 0 447.27589304831946 555.6782654178639 L 447.27589304831946 757.6924259891355 A 29.647445223112253 29.647445223112253 0 0 0 476.92333827143176 787.3398712122478 L 1307.429117228137 787.3398712122478 A 119.40285657148564 119.40285657148564 0 0 0 1426.8319737996228 667.9370146407621 L 1426.8319737996228 152.04379849120494 A 119.40285657148564 119.40285657148564 0 0 0 1307.429117228137 32.64094191971928 L 1302.429117228137 32.64094191971928 L 1302.429117228137 34.83069990553609 L 1307.429117228137 34.83069990553609 A 117.21309858566883 117.21309858566883 0 0 1 1424.642215813806 152.04379849120494 L 1424.642215813806 667.9370146407621 A 117.21309858566883 117.21309858566883 0 0 1 1307.429117228137 785.1501132264309 L 476.92333827143176 785.1501132264309 A 27.457687237295442 27.457687237295442 0 0 1 449.46565103413633 757.6924259891355 L 449.46565103413633 555.6782654178639 A 27.457687237295442 27.457687237295442 0 0 1 476.92333827143176 528.2205781805685 L 481.92333827143176 528.2205781805685Z" style="stroke: rgb(68, 68, 68); stroke-opacity: 1; fill: rgb(0, 0, 0); fill-opacity: 0.2; stroke-width: 0; opacity: 1;"/><path class="sankey-link" d="M768.7585979236669,457.61155949668296C892.1762277497845,457.61155949668296 892.1762277497845,527.7143715177409 1015.5938575759021,527.7143715177409L1015.5938575759021,529.8312357441106C892.1762277497845,529.8312357441106 892.1762277497845,459.72842372305263 768.7585979236669,459.72842372305263Z" style="stroke: rgb(68, 68, 68); stroke-opacity: 1; fill: rgb(0, 0, 0); fill-opacity: 0.2; stroke-width: 0; opacity: 1;"/><path class="sankey-link" d="M 481.92333827143176 535.320356720662  L 476.92333827143176 535.320356720662 A 20.357908697201754 20.357908697201754 0 0 0 456.56542957423 555.6782654178637 L 456.56542957423 567.6053814671458 A 20.357908697201754 20.357908697201754 0 0 0 476.92333827143176 587.9632901643475 L 773.7585979236669 587.9632901643475 A 16.832133271820513 16.832133271820513 0 0 0 790.5907311954875 571.131156892527 L 790.5907311954875 555.6782654178638 A 16.832133271820513 16.832133271820513 0 0 0 773.7585979236669 538.8461321460433 L 768.7585979236669 538.8461321460433 L 768.7585979236669 540.9188183363843 L 773.7585979236669 540.9188183363843 A 14.759447081479449 14.759447081479449 0 0 1 788.5180450051464 555.6782654178638 L 788.5180450051464 571.131156892527 A 14.759447081479449 14.759447081479449 0 0 1 773.7585979236669 585.8906039740065 L 476.92333827143176 585.8906039740065 A 18.285222506860688 18.285222506860688 0 0 1 458.63811576457107 567.6053814671458 L 458.63811576457107 555.6782654178637 A 18.285222506860688 18.285222506860688 0 0 1 476.92333827143176 537.393042911003 L 481.92333827143176 537.393042911003Z" style="stroke: rgb(68, 68, 68); stroke-opacity: 1; fill: rgb(0, 0, 0); fill-opacity: 0.2; stroke-width: 0; opacity: 1;"/><path class="sankey-link" d="M 615.3409680975494 517.7776267640114  L 610.3409680975494 517.7776267640114 A 37.900638653852226 37.900638653852226 0 0 0 572.4403294436971 555.6782654178637 L 572.4403294436971 646.0287584238872 A 37.900638653852226 37.900638653852226 0 0 0 610.3409680975494 683.9293970777394 L 1174.0114874020196 683.9293970777394 A 16.015944056192424 16.015944056192424 0 0 0 1190.027431458212 667.913453021547 L 1190.027431458212 555.6782654178637 A 16.015944056192424 16.015944056192424 0 0 0 1174.0114874020196 539.6623213616713 L 1169.0114874020196 539.6623213616713 L 1169.0114874020196 541.7258037945064 L 1174.0114874020196 541.7258037945064 A 13.952461623357316 13.952461623357316 0 0 1 1187.9639490253771 555.6782654178637 L 1187.9639490253771 667.913453021547 A 13.952461623357316 13.952461623357316 0 0 1 1174.0114874020196 681.8659146449043 L 610.3409680975494 681.8659146449043 A 35.83715622101711 35.83715622101711 0 0 1 574.5038118765323 646.0287584238872 L 574.5038118765323 555.6782654178637 A 35.83715622101711 35.83715622101711 0 0 1 610.3409680975494 519.8411091968466 L 615.3409680975494 519.8411091968466Z" style="stroke: rgb(68, 68, 68); stroke-opacity: 1; fill: rgb(0, 0, 0); fill-opacity: 0.2; stroke-width: 0; opacity: 1;"/><path class="sankey-link" d="M 1015.5938575759021 543.6394490551446  L 1010.5938575759021 543.6394490551446 A 12.038816362719153 12.038816362719153 0 0 0 998.5550412131829 555.6782654178638 L 998.5550412131829 560.6782654178638 A 12.038816362719153 12.038816362719153 0 0 0 1010.5938575759021 572.717081780583 L 1174.0114874020196 572.717081780583 A 12.038816362719153 12.038816362719153 0 0 0 1186.0503037647386 560.6782654178638 L 1186.0503037647386 555.6782654178638 A 12.038816362719153 12.038816362719153 0 0 0 1174.0114874020196 543.6394490551446 L 1169.0114874020196 543.6394490551446 L 1169.0114874020196 545.6782654178638 L 1174.0114874020196 545.6782654178638 A 10 10 0 0 1 1184.0114874020196 555.6782654178638 L 1184.0114874020196 560.6782654178638 A 10 10 0 0 1 1174.0114874020196 570.6782654178638 L 1010.5938575759021 570.6782654178638 A 10 10 0 0 1 1000.5938575759021 560.6782654178638 L 1000.5938575759021 555.6782654178638 A 10 10 0 0 1 1010.5938575759021 545.6782654178638 L 1015.5938575759021 545.6782654178638Z" style="stroke: rgb(68, 68, 68); stroke-opacity: 1; fill: rgb(0, 0, 0); fill-opacity: 0.2; stroke-width: 0; opacity: 1;"/><path class="sankey-link" d="M 81.67044879307906 117.73262526467511  L 76.67044879307906 117.73262526467511 A 34.31117322652977 34.31117322652977 0 0 0 42.35927556654929 152.04379849120488 L 42.35927556654929 611.3431097366449 A 34.31117322652977 34.31117322652977 0 0 0 76.67044879307906 645.6542829631746 L 506.92333827143176 645.6542829631746 A 15.781432314940691 15.781432314940691 0 0 0 522.7047705863724 629.8728506482339 L 522.7047705863724 555.6782654178639 A 15.781432314940691 15.781432314940691 0 0 0 506.92333827143176 539.8968331029232 L 501.92333827143176 539.8968331029232 L 501.92333827143176 541.9113515458266 L 506.92333827143176 541.9113515458266 A 13.76691387203726 13.76691387203726 0 0 1 520.690252143469 555.6782654178639 L 520.690252143469 629.8728506482339 A 13.76691387203726 13.76691387203726 0 0 1 506.92333827143176 643.6397645202712 L 76.67044879307906 643.6397645202712 A 32.296654783626344 32.296654783626344 0 0 1 44.373794009452716 611.3431097366449 L 44.373794009452716 152.04379849120488 A 32.296654783626344 32.296654783626344 0 0 1 76.67044879307906 119.74714370757854 L 81.67044879307906 119.74714370757854Z" style="stroke: rgb(68, 68, 68); stroke-opacity: 1; fill: rgb(0, 0, 0); fill-opacity: 0.2; stroke-width: 0; opacity: 1;"/><path class="sankey-link" d="M235.08807861919664,516.8697681236241C358.5057084453142,516.8697681236241 358.5057084453142,524.053116781872 481.92333827143176,524.053116781872L481.92333827143176,526.0308201947516C358.5057084453142,526.0308201947516 358.5057084453142,518.8474715365038 235.08807861919664,518.8474715365038Z" style="stroke: rgb(68, 68, 68); stroke-opacity: 1; fill: rgb(0, 0, 0); fill-opacity: 0.2; stroke-width: 0; opacity: 1;"/><path class="sankey-link" d="M635.3409680975494,493.2816420867622C825.4674128367258,493.2816420867622 825.4674128367258,529.8312357441107 1015.5938575759021,529.8312357441107L1015.5938575759021,531.7054889226233C825.4674128367258,531.7054889226233 825.4674128367258,495.1558952652749 635.3409680975494,495.1558952652749Z" style="stroke: rgb(68, 68, 68); stroke-opacity: 1; fill: rgb(0, 0, 0); fill-opacity: 0.2; stroke-width: 0; opacity: 1;"/><path class="sankey-link" d="M501.92333827143176,537.7773918244518C825.4674128367257,537.7773918244518 825.4674128367257,543.057771580768 1149.0114874020196,543.057771580768L1149.0114874020196,544.8016995529964C825.4674128367257,544.8016995529964 825.4674128367257,539.5213197966802 501.92333827143176,539.5213197966802Z" style="stroke: rgb(68, 68, 68); stroke-opacity: 1; fill: rgb(0, 0, 0); fill-opacity: 0.2; stroke-width: 0; opacity: 1;"/><path class="sankey-link" d="M101.67044879307906,96.36812704125194C625.3409680975493,96.36812704125194 625.3409680975493,523.8123464855162 1149.0114874020196,523.8123464855162L1149.0114874020196,525.4178499448549C625.3409680975493,525.4178499448549 625.3409680975493,97.97363050059073 101.67044879307906,97.97363050059073Z" style="stroke: rgb(68, 68, 68); stroke-opacity: 1; fill: rgb(0, 0, 0); fill-opacity: 0.2; stroke-width: 0; opacity: 1;"/><path class="sankey-link" d="M235.08807861919664,500.9564713958281C758.7585979236669,500.9564713958281 758.7585979236669,15.625771343310179 1282.429117228137,15.625771343310179L1282.429117228137,17.225016247544918C758.7585979236669,17.225016247544918 758.7585979236669,502.55571630006284 235.08807861919664,502.55571630006284Z" style="stroke: rgb(68, 68, 68); stroke-opacity: 1; fill: rgb(0, 0, 0); fill-opacity: 0.2; stroke-width: 0; opacity: 1;"/><path class="sankey-link" d="M1035.5938575759021,527.0193037508913C1092.302672488961,527.0193037508913 1092.302672488961,533.6217112353628 1149.0114874020196,533.6217112353628L1149.0114874020196,535.0372491397787C1092.302672488961,535.0372491397787 1092.302672488961,528.4348416553072 1035.5938575759021,528.4348416553072Z" style="stroke: rgb(68, 68, 68); stroke-opacity: 1; fill: rgb(0, 0, 0); fill-opacity: 0.2; stroke-width: 0; opacity: 1;"/><path class="sankey-link" d="M 215.08807861919664 532.8349740437538  L 210.08807861919664 532.8349740437538 A 22.843291374109846 22.843291374109846 0 0 0 187.2447872450868 555.6782654178637 L 187.2447872450868 563.0473125998967 A 22.843291374109846 22.843291374109846 0 0 0 210.08807861919664 585.8906039740066 L 506.92333827143176 585.8906039740066 A 13.766913872037263 13.766913872037263 0 0 0 520.690252143469 572.1236901019693 L 520.690252143469 555.6782654178637 A 13.766913872037263 13.766913872037263 0 0 0 506.92333827143176 541.9113515458264 L 501.92333827143176 541.9113515458264 L 501.92333827143176 543.3092182358309 L 506.92333827143176 543.3092182358309 A 12.369047182032817 12.369047182032817 0 0 1 519.2923854534645 555.6782654178637 L 519.2923854534645 572.1236901019693 A 12.369047182032817 12.369047182032817 0 0 1 506.92333827143176 584.492737284002 L 210.08807861919664 584.492737284002 A 21.445424684105397 21.445424684105397 0 0 1 188.64265393509123 563.0473125998967 L 188.64265393509123 555.6782654178637 A 21.445424684105397 21.445424684105397 0 0 1 210.08807861919664 534.2328407337584 L 215.08807861919664 534.2328407337584Z" style="stroke: rgb(68, 68, 68); stroke-opacity: 1; fill: rgb(0, 0, 0); fill-opacity: 0.2; stroke-width: 0; opacity: 1;"/><path class="sankey-link" d="M501.92333827143176,517.7172501147725C892.1762277497844,517.7172501147725 892.1762277497844,29.103017534430187 1282.429117228137,29.103017534430187L1282.429117228137,30.489839715427486C892.1762277497844,30.489839715427486 892.1762277497844,519.1040722957698 501.92333827143176,519.1040722957698Z" style="stroke: rgb(68, 68, 68); stroke-opacity: 1; fill: rgb(0, 0, 0); fill-opacity: 0.2; stroke-width: 0; opacity: 1;"/><path class="sankey-link" d="M235.08807861919664,515.4873637462298C625.3409680975494,515.4873637462298 625.3409680975494,535.3917778789084 1015.5938575759021,535.3917778789084L1015.5938575759021,536.774182256303C625.3409680975494,536.774182256303 625.3409680975494,516.8697681236243 235.08807861919664,516.8697681236243Z" style="stroke: rgb(68, 68, 68); stroke-opacity: 1; fill: rgb(0, 0, 0); fill-opacity: 0.2; stroke-width: 0; opacity: 1;"/><path class="sankey-link" d="M 81.67044879307906 140.70078619593593  L 76.67044879307906 140.70078619593593 A 11.343012295268952 11.343012295268952 0 0 0 65.32743649781011 152.0437984912049 L 65.32743649781011 560.6782654178638 A 11.343012295268952 11.343012295268952 0 0 0 76.67044879307906 572.0212777131327 L 240.08807861919664 572.0212777131327 A 11.343012295268952 11.343012295268952 0 0 0 251.4310909144656 560.6782654178638 L 251.4310909144656 555.6782654178638 A 11.343012295268952 11.343012295268952 0 0 0 240.08807861919664 544.335253122595 L 235.08807861919664 544.335253122595 L 235.08807861919664 545.6782654178638 L 240.08807861919664 545.6782654178638 A 10 10 0 0 1 250.08807861919664 555.6782654178638 L 250.08807861919664 560.6782654178638 A 10 10 0 0 1 240.08807861919664 570.6782654178638 L 76.67044879307906 570.6782654178638 A 10 10 0 0 1 66.67044879307906 560.6782654178638 L 66.67044879307906 152.0437984912049 A 10 10 0 0 1 76.67044879307906 142.0437984912049 L 81.67044879307906 142.0437984912049Z" style="stroke: rgb(68, 68, 68); stroke-opacity: 1; fill: rgb(0, 0, 0); fill-opacity: 0.2; stroke-width: 0; opacity: 1;"/><path class="sankey-link" d="M 81.67044879307906 108.13273803566383  L 76.67044879307906 108.13273803566383 A 43.91106045554106 43.91106045554106 0 0 0 32.759388337538 152.0437984912049 L 32.759388337538 722.9055359693278 A 43.91106045554106 43.91106045554106 0 0 0 76.67044879307906 766.816596424869 L 773.7585979236669 766.816596424869 A 27.689253776145268 27.689253776145268 0 0 0 801.4478516998122 739.1273426487237 L 801.4478516998122 555.6782654178637 A 27.689253776145268 27.689253776145268 0 0 0 773.7585979236669 527.9890116417184 L 768.7585979236669 527.9890116417184 L 768.7585979236669 529.2690702356467 L 773.7585979236669 529.2690702356467 A 26.409195182217044 26.409195182217044 0 0 1 800.1677931058839 555.6782654178637 L 800.1677931058839 739.1273426487237 A 26.409195182217044 26.409195182217044 0 0 1 773.7585979236669 765.5365378309407 L 76.67044879307906 765.5365378309407 A 42.631001861612845 42.631001861612845 0 0 1 34.039446931466216 722.9055359693278 L 34.039446931466216 152.0437984912049 A 42.631001861612845 42.631001861612845 0 0 1 76.67044879307906 109.41279662959207 L 81.67044879307906 109.41279662959207Z" style="stroke: rgb(68, 68, 68); stroke-opacity: 1; fill: rgb(0, 0, 0); fill-opacity: 0.2; stroke-width: 0; opacity: 1;"/><path class="sankey-link" d="M 481.92333827143176 529.1832912156913  L 476.92333827143176 529.1832912156913 A 26.49497420217255 26.49497420217255 0 0 0 450.4283640692592 555.6782654178638 L 450.4283640692592 658.7115362670932 A 26.49497420217255 26.49497420217255 0 0 0 476.92333827143176 685.2065104692657 L 1040.5938575759021 685.2065104692657 A 21.378421329462043 21.378421329462043 0 0 0 1061.9722789053642 663.8280891398036 L 1061.9722789053642 555.6782654178637 A 21.378421329462043 21.378421329462043 0 0 0 1040.5938575759021 534.2998440884016 L 1035.5938575759021 534.2998440884016 L 1035.5938575759021 535.5769574799281 L 1040.5938575759021 535.5769574799281 A 20.10130793793573 20.10130793793573 0 0 1 1060.695165513838 555.6782654178637 L 1060.695165513838 663.8280891398036 A 20.10130793793573 20.10130793793573 0 0 1 1040.5938575759021 683.9293970777393 L 476.92333827143176 683.9293970777393 A 25.217860810646236 25.217860810646236 0 0 1 451.7054774607855 658.7115362670932 L 451.7054774607855 555.6782654178638 A 25.217860810646236 25.217860810646236 0 0 1 476.92333827143176 530.4604046072177 L 481.92333827143176 530.4604046072177Z" style="stroke: rgb(68, 68, 68); stroke-opacity: 1; fill: rgb(0, 0, 0); fill-opacity: 0.2; stroke-width: 0; opacity: 1;"/><path class="sankey-link" d="M 81.67044879307906 103.0607313492822  L 76.67044879307906 103.0607313492822 A 48.98306714192275 48.98306714192275 0 0 0 27.68738165115631 152.04379849120494 L 27.68738165115631 755.0237044627088 A 48.98306714192275 48.98306714192275 0 0 0 76.67044879307906 804.0067716046316 L 1174.0114874020196 804.0067716046316 A 18.57753384524982 18.57753384524982 0 0 0 1192.5890212472696 785.4292377593817 L 1192.5890212472696 555.6782654178638 A 18.57753384524982 18.57753384524982 0 0 0 1174.0114874020196 537.100731572614 L 1169.0114874020196 537.100731572614 L 1169.0114874020196 538.3351395293128 L 1174.0114874020196 538.3351395293128 A 17.34312588855114 17.34312588855114 0 0 1 1191.3546132905708 555.6782654178638 L 1191.3546132905708 785.4292377593817 A 17.34312588855114 17.34312588855114 0 0 1 1174.0114874020196 802.7723636479328 L 76.67044879307906 802.7723636479328 A 47.748659185224064 47.748659185224064 0 0 1 28.921789607854993 755.0237044627088 L 28.921789607854993 152.04379849120494 A 47.748659185224064 47.748659185224064 0 0 1 76.67044879307906 104.29513930598087 L 81.67044879307906 104.29513930598087Z" style="stroke: rgb(68, 68, 68); stroke-opacity: 1; fill: rgb(0, 0, 0); fill-opacity: 0.2; stroke-width: 0; opacity: 1;"/><path class="sankey-link" d="M501.92333827143176,536.6456978015196C758.7585979236669,536.6456978015196 758.7585979236669,536.7741822563028 1015.5938575759021,536.7741822563028L1015.5938575759021,537.9058762792349C758.7585979236669,537.9058762792349 758.7585979236669,537.7773918244518 501.92333827143176,537.7773918244518Z" style="stroke: rgb(68, 68, 68); stroke-opacity: 1; fill: rgb(0, 0, 0); fill-opacity: 0.2; stroke-width: 0; opacity: 1;"/><path class="sankey-link" d="M 748.7585979236669 538.3020060022913  L 743.7585979236669 538.3020060022913 A 17.376259415572573 17.376259415572573 0 0 0 726.3823385080943 555.6782654178638 L 726.3823385080943 591.6676850907145 A 17.376259415572573 17.376259415572573 0 0 0 743.7585979236669 609.0439445062871 L 1174.0114874020196 609.0439445062871 A 13.952461623357312 13.952461623357312 0 0 0 1187.9639490253771 595.0914828829298 L 1187.9639490253771 555.6782654178638 A 13.952461623357312 13.952461623357312 0 0 0 1174.0114874020196 541.7258037945065 L 1169.0114874020196 541.7258037945065 L 1169.0114874020196 542.8460851581314 L 1174.0114874020196 542.8460851581314 A 12.832180259732471 12.832180259732471 0 0 1 1186.843667661752 555.6782654178638 L 1186.843667661752 595.0914828829298 A 12.832180259732471 12.832180259732471 0 0 1 1174.0114874020196 607.9236631426622 L 743.7585979236669 607.9236631426622 A 16.255978051947732 16.255978051947732 0 0 1 727.5026198717192 591.6676850907145 L 727.5026198717192 555.6782654178638 A 16.255978051947732 16.255978051947732 0 0 1 743.7585979236669 539.4222873659161 L 748.7585979236669 539.4222873659161Z" style="stroke: rgb(68, 68, 68); stroke-opacity: 1; fill: rgb(0, 0, 0); fill-opacity: 0.2; stroke-width: 0; opacity: 1;"/><path class="sankey-link" d="M101.67044879307906,119.64995202831577C158.37926370613786,119.64995202831577 158.37926370613786,500.3641175627448 215.08807861919664,500.3641175627448L215.08807861919664,501.4785085215658C158.37926370613786,501.4785085215658 158.37926370613786,120.76434298713679 101.67044879307906,120.76434298713679Z" style="stroke: rgb(68, 68, 68); stroke-opacity: 1; fill: rgb(0, 0, 0); fill-opacity: 0.2; stroke-width: 0; opacity: 1;"/><path class="sankey-link" d="M 481.92333827143176 528.2205781805683  L 476.92333827143176 528.2205781805683 A 27.457687237295442 27.457687237295442 0 0 0 449.46565103413633 555.6782654178637 L 449.46565103413633 735.5098977985831 A 27.457687237295442 27.457687237295442 0 0 0 476.92333827143176 762.9675850358786 L 1174.0114874020196 762.9675850358786 A 16.97865709131532 16.97865709131532 0 0 0 1190.9901444933348 745.9889279445633 L 1190.9901444933348 555.6782654178638 A 16.97865709131532 16.97865709131532 0 0 0 1174.0114874020196 538.6996083265485 L 1169.0114874020196 538.6996083265485 L 1169.0114874020196 539.6623213616715 L 1174.0114874020196 539.6623213616715 A 16.015944056192424 16.015944056192424 0 0 1 1190.027431458212 555.6782654178638 L 1190.027431458212 745.9889279445633 A 16.015944056192424 16.015944056192424 0 0 1 1174.0114874020196 762.0048720007557 L 476.92333827143176 762.0048720007557 A 26.494974202172546 26.494974202172546 0 0 1 450.4283640692592 735.5098977985831 L 450.4283640692592 555.6782654178637 A 26.494974202172546 26.494974202172546 0 0 1 476.92333827143176 529.1832912156913 L 481.92333827143176 529.1832912156913Z" style="stroke: rgb(0, 0, 0); stroke-opacity: 0.2; fill: rgb(0, 0, 0); fill-opacity: 0.2; stroke-width: 1; opacity: 1;"/><path class="sankey-link" d="M 81.67044879307906 107.21493933717  L 76.67044879307906 107.21493933717 A 44.828859154034895 44.828859154034895 0 0 0 31.841589639044162 152.04379849120488 L 31.841589639044162 740.3212540723961 A 44.828859154034895 44.828859154034895 0 0 0 76.67044879307906 785.150113226431 L 907.1762277497844 785.150113226431 A 54.422487827942156 54.422487827942156 0 0 0 961.5987155777266 730.7276253984888 L 961.5987155777266 555.6782654178638 A 54.422487827942156 54.422487827942156 0 0 0 907.1762277497844 501.2557775899217 L 902.1762277497844 501.2557775899217 L 902.1762277497844 502.1735762884155 L 907.1762277497844 502.1735762884155 A 53.50468912944833 53.50468912944833 0 0 1 960.6809168792327 555.6782654178638 L 960.6809168792327 730.7276253984888 A 53.50468912944833 53.50468912944833 0 0 1 907.1762277497844 784.2323145279371 L 76.67044879307906 784.2323145279371 A 43.91106045554107 43.91106045554107 0 0 1 32.75938833753799 740.3212540723961 L 32.75938833753799 152.04379849120488 A 43.91106045554107 43.91106045554107 0 0 1 76.67044879307906 108.13273803566383 L 81.67044879307906 108.13273803566383Z" style="stroke: rgb(0, 0, 0); stroke-opacity: 0.2; fill: rgb(0, 0, 0); fill-opacity: 0.2; stroke-width: 1; opacity: 1;"/><path class="sankey-link" d="M 1149.0114874020196 544.8016995529966  L 1144.0114874020196 544.8016995529966 A 10.876565864867153 10.876565864867153 0 0 0 1133.1349215371524 555.6782654178638 L 1133.1349215371524 562.7170817805829 A 10.876565864867153 10.876565864867153 0 0 0 1144.0114874020196 573.5936476454501 L 1307.429117228137 573.5936476454501 A 10.876565864867153 10.876565864867153 0 0 0 1318.3056830930043 562.7170817805829 L 1318.3056830930043 152.04379849120494 A 10.876565864867153 10.876565864867153 0 0 0 1307.429117228137 141.1672326263378 L 1302.429117228137 141.1672326263378 L 1302.429117228137 142.04379849120494 L 1307.429117228137 142.04379849120494 A 10 10 0 0 1 1317.429117228137 152.04379849120494 L 1317.429117228137 562.7170817805829 A 10 10 0 0 1 1307.429117228137 572.7170817805829 L 1144.0114874020196 572.7170817805829 A 10 10 0 0 1 1134.0114874020196 562.7170817805829 L 1134.0114874020196 555.6782654178638 A 10 10 0 0 1 1144.0114874020196 545.6782654178638 L 1149.0114874020196 545.6782654178638Z" style="stroke: rgb(0, 0, 0); stroke-opacity: 0.2; fill: rgb(0, 0, 0); fill-opacity: 0.2; stroke-width: 1; opacity: 1;"/><path class="sankey-link" d="M 882.1762277497844 537.8683249486106  L 877.1762277497844 537.8683249486106 A 17.809940469253174 17.809940469253174 0 0 0 859.3662872805313 555.6782654178637 L 859.3662872805313 571.2666362030147 A 17.809940469253174 17.809940469253174 0 0 0 877.1762277497844 589.0765766722678 L 1174.0114874020196 589.0765766722678 A 12.832180259732473 12.832180259732473 0 0 0 1186.843667661752 576.2443964125354 L 1186.843667661752 555.6782654178638 A 12.832180259732473 12.832180259732473 0 0 0 1174.0114874020196 542.8460851581314 L 1169.0114874020196 542.8460851581314 L 1169.0114874020196 543.6394490551446 L 1174.0114874020196 543.6394490551446 A 12.038816362719151 12.038816362719151 0 0 1 1186.0503037647386 555.6782654178638 L 1186.0503037647386 576.2443964125354 A 12.038816362719151 12.038816362719151 0 0 1 1174.0114874020196 588.2832127752546 L 877.1762277497844 588.2832127752546 A 17.016576572239853 17.016576572239853 0 0 1 860.1596511775446 571.2666362030147 L 860.1596511775446 555.6782654178637 A 17.016576572239853 17.016576572239853 0 0 1 877.1762277497844 538.6616888456239 L 882.1762277497844 538.6616888456239Z" style="stroke: rgb(0, 0, 0); stroke-opacity: 0.2; fill: rgb(0, 0, 0); fill-opacity: 0.2; stroke-width: 1; opacity: 1;"/><path class="sankey-link" d="M235.08807861919664,500.3641175627447C291.7968935322554,500.3641175627447 291.7968935322554,315.27802671919073 348.5057084453142,315.27802671919073L348.5057084453142,315.870380552274C291.7968935322554,315.870380552274 291.7968935322554,500.956471395828 235.08807861919664,500.956471395828Z" style="stroke: rgb(0, 0, 0); stroke-opacity: 0.2; fill: rgb(0, 0, 0); fill-opacity: 0.2; stroke-width: 1; opacity: 1;"/><path class="sankey-link" d="M235.08807861919664,514.8990595664491C692.0497830106082,514.8990595664491 692.0497830106082,542.4694674009874 1149.0114874020196,542.4694674009874L1149.0114874020196,543.057771580768C692.0497830106082,543.057771580768 692.0497830106082,515.4873637462297 235.08807861919664,515.4873637462297Z" style="stroke: rgb(0, 0, 0); stroke-opacity: 0.2; fill: rgb(0, 0, 0); fill-opacity: 0.2; stroke-width: 1; opacity: 1;"/><path class="sankey-link" d="M1169.0114874020196,517.3693480810474C1225.7203023150782,517.3693480810474 1225.7203023150782,46.05597071009903 1282.429117228137,46.05597071009903L1282.429117228137,46.53603870160964C1225.7203023150782,46.53603870160964 1225.7203023150782,517.849416072558 1169.0114874020196,517.849416072558Z" style="stroke: rgb(0, 0, 0); stroke-opacity: 0.2; fill: rgb(0, 0, 0); fill-opacity: 0.2; stroke-width: 1; opacity: 1;"/><path class="sankey-link" d="M101.67044879307906,97.97363050059074C558.6321531844906,97.97363050059074 558.6321531844906,527.2865808688642 1015.5938575759021,527.2865808688642L1015.5938575759021,527.7143715177409C558.6321531844906,527.7143715177409 558.6321531844906,98.40142114946754 101.67044879307906,98.40142114946754Z" style="stroke: rgb(0, 0, 0); stroke-opacity: 0.2; fill: rgb(0, 0, 0); fill-opacity: 0.2; stroke-width: 1; opacity: 1;"/><path class="sankey-link" d="M 748.7585979236669 539.422287365916  L 743.7585979236669 539.422287365916 A 16.255978051947732 16.255978051947732 0 0 0 727.5026198717193 555.6782654178636 L 727.5026198717193 573.2476529685965 A 16.255978051947732 16.255978051947732 0 0 0 743.7585979236669 589.5036310205442 L 1040.5938575759021 589.5036310205442 A 17.443630920516163 17.443630920516163 0 0 0 1058.0374884964183 572.060000100028 L 1058.0374884964183 555.6782654178637 A 17.443630920516163 17.443630920516163 0 0 0 1040.5938575759021 538.2346344973475 L 1035.5938575759021 538.2346344973475 L 1035.5938575759021 538.6616888456238 L 1040.5938575759021 538.6616888456238 A 17.01657657223985 17.01657657223985 0 0 1 1057.610434148142 555.6782654178637 L 1057.610434148142 572.060000100028 A 17.01657657223985 17.01657657223985 0 0 1 1040.5938575759021 589.076576672268 L 743.7585979236669 589.076576672268 A 15.82892370367142 15.82892370367142 0 0 1 727.9296742199955 573.2476529685965 L 727.9296742199955 555.6782654178636 A 15.82892370367142 15.82892370367142 0 0 1 743.7585979236669 539.8493417141922 L 748.7585979236669 539.8493417141922Z" style="stroke: rgb(0, 0, 0); stroke-opacity: 0.2; fill: rgb(0, 0, 0); fill-opacity: 0.2; stroke-width: 1; opacity: 1;"/><path class="sankey-link" d="M 215.08807861919664 512.9342414140779  L 210.08807861919664 512.9342414140779 A 42.74402400378598 42.74402400378598 0 0 0 167.34405461541067 555.6782654178638 L 167.34405461541067 741.4882905241512 A 42.74402400378598 42.74402400378598 0 0 0 210.08807861919664 784.2323145279372 L 1040.5938575759021 784.2323145279372 A 24.323623731367643 24.323623731367643 0 0 0 1064.9174813072698 759.9086907965695 L 1064.9174813072698 555.6782654178638 A 24.323623731367643 24.323623731367643 0 0 0 1040.5938575759021 531.3546416864962 L 1035.5938575759021 531.3546416864962 L 1035.5938575759021 531.7308912933396 L 1040.5938575759021 531.7308912933396 A 23.947374124524206 23.947374124524206 0 0 1 1064.5412317004264 555.6782654178638 L 1064.5412317004264 759.9086907965695 A 23.947374124524206 23.947374124524206 0 0 1 1040.5938575759021 783.8560649210938 L 210.08807861919664 783.8560649210938 A 42.367774396942536 42.367774396942536 0 0 1 167.7203042222541 741.4882905241512 L 167.7203042222541 555.6782654178638 A 42.367774396942536 42.367774396942536 0 0 1 210.08807861919664 513.3104910209213 L 215.08807861919664 513.3104910209213Z" style="stroke: rgb(0, 0, 0); stroke-opacity: 0.2; fill: rgb(0, 0, 0); fill-opacity: 0.2; stroke-width: 1; opacity: 1;"/><path class="sankey-link" d="M 215.08807861919664 512.6110054504686  L 210.08807861919664 512.6110054504686 A 43.06725996739511 43.06725996739511 0 0 0 167.02081865180153 555.6782654178638 L 167.02081865180153 744.5958472084617 A 43.06725996739511 43.06725996739511 0 0 0 210.08807861919664 787.6631071758569 L 1174.0114874020196 787.6631071758569 A 17.34312588855114 17.34312588855114 0 0 0 1191.3546132905708 770.3199812873057 L 1191.3546132905708 555.6782654178637 A 17.34312588855114 17.34312588855114 0 0 0 1174.0114874020196 538.3351395293125 L 1169.0114874020196 538.3351395293125 L 1169.0114874020196 538.6583754929218 L 1174.0114874020196 538.6583754929218 A 17.019889924941996 17.019889924941996 0 0 1 1191.0313773269618 555.6782654178637 L 1191.0313773269618 770.3199812873057 A 17.019889924941996 17.019889924941996 0 0 1 1174.0114874020196 787.3398712122477 L 210.08807861919664 787.3398712122477 A 42.744024003785974 42.744024003785974 0 0 1 167.34405461541067 744.5958472084617 L 167.34405461541067 555.6782654178638 A 42.744024003785974 42.744024003785974 0 0 1 210.08807861919664 512.9342414140779 L 215.08807861919664 512.9342414140779Z" style="stroke: rgb(0, 0, 0); stroke-opacity: 0.2; fill: rgb(0, 0, 0); fill-opacity: 0.2; stroke-width: 1; opacity: 1;"/><path class="sankey-link" d="M101.67044879307906,116.90391893883898C291.7968935322554,116.90391893883898 291.7968935322554,517.7172501147725 481.92333827143176,517.7172501147725L481.92333827143176,518.0033028980577C291.7968935322554,518.0033028980577 291.7968935322554,117.18997172212406 101.67044879307906,117.18997172212406Z" style="stroke: rgb(0, 0, 0); stroke-opacity: 0.2; fill: rgb(0, 0, 0); fill-opacity: 0.2; stroke-width: 1; opacity: 1;"/><path class="sankey-link" d="M 348.5057084453142 511.92698219262627  L 343.5057084453142 511.92698219262627 A 43.75128322523769 43.75128322523769 0 0 0 299.75442522007654 555.6782654178639 L 299.75442522007654 740.1047816958561 A 43.75128322523769 43.75128322523769 0 0 0 343.5057084453142 783.8560649210938 L 1174.0114874020196 783.8560649210938 A 17.019889924942 17.019889924942 0 0 0 1191.0313773269615 766.8361749961517 L 1191.0313773269615 555.6782654178638 A 17.019889924942 17.019889924942 0 0 0 1174.0114874020196 538.6583754929218 L 1169.0114874020196 538.6583754929218 L 1169.0114874020196 538.6996083265485 L 1174.0114874020196 538.6996083265485 A 16.97865709131532 16.97865709131532 0 0 1 1190.990144493335 555.6782654178638 L 1190.990144493335 766.8361749961517 A 16.97865709131532 16.97865709131532 0 0 1 1174.0114874020196 783.814832087467 L 343.5057084453142 783.814832087467 A 43.71005039161101 43.71005039161101 0 0 1 299.79565805370316 740.1047816958561 L 299.79565805370316 555.6782654178639 A 43.71005039161101 43.71005039161101 0 0 1 343.5057084453142 511.9682150262529 L 348.5057084453142 511.9682150262529Z" style="stroke: rgb(0, 0, 0); stroke-opacity: 0.2; fill: rgb(0, 0, 0); fill-opacity: 0.2; stroke-width: 1; opacity: 1;"/></g><g class="sankey-node-set" style="cursor: move;"><g class="sankey-node" transform="translate(81.670,93.742)" style="opacity: 1;"><rect class="node-rect" width="20" height="48.30205569185229" style="stroke-width: 0.8; stroke: rgb(68, 68, 68); stroke-opacity: 1; fill: rgb(99, 110, 250); fill-opacity: 0.8;"/><text class="node-label" data-notex="1" x="0" y="0" text-anchor="start" transform="translate(23.4,29.751027845926146)" style="cursor: default; font-family: 'Open Sans', verdana, arial, sans-serif; font-size: 16px; fill: rgb(42, 63, 95); fill-opacity: 1; text-shadow: rgb(255, 255, 255) 1px 1px 1px, rgb(255, 255, 255) -1px -1px 1px, rgb(255, 255, 255) 1px -1px 1px, rgb(255, 255, 255) -1px 1px 1px; white-space: pre;">AMC | AWaRe: Access | Class: -lactam/-lactamase inhibitor</text></g><g class="sankey-node" transform="translate(215.088,500.364)" style="opacity: 1;"><rect class="node-rect" width="20" height="45.314147855119074" style="stroke-width: 0.8; stroke: rgb(68, 68, 68); stroke-opacity: 1; fill: rgb(239, 85, 59); fill-opacity: 0.8;"/><text class="node-label" data-notex="1" x="0" y="0" text-anchor="start" transform="translate(23.4,28.25707392755954)" style="cursor: default; font-family: 'Open Sans', verdana, arial, sans-serif; font-size: 16px; fill: rgb(42, 63, 95); fill-opacity: 1; text-shadow: rgb(255, 255, 255) 1px 1px 1px, rgb(255, 255, 255) -1px -1px 1px, rgb(255, 255, 255) 1px -1px 1px, rgb(255, 255, 255) -1px 1px 1px; white-space: pre;">AMP | AWaRe: Access | Class: Penicillin (-lactam)</text></g><g class="sankey-node" transform="translate(348.506,312.818)" style="opacity: 1;"><rect class="node-rect" width="20" height="232.8602190048648" style="stroke-width: 0.8; stroke: rgb(68, 68, 68); stroke-opacity: 1; fill: rgb(0, 204, 150); fill-opacity: 0.8;"/><text class="node-label" data-notex="1" x="0" y="0" text-anchor="start" transform="translate(23.4,122.0301095024324)" style="cursor: default; font-family: 'Open Sans', verdana, arial, sans-serif; font-size: 16px; fill: rgb(42, 63, 95); fill-opacity: 1; text-shadow: rgb(255, 255, 255) 1px 1px 1px, rgb(255, 255, 255) -1px -1px 1px, rgb(255, 255, 255) 1px -1px 1px, rgb(255, 255, 255) -1px 1px 1px; white-space: pre;">CIP | AWaRe: Watch | Class: Fluoroquinolone</text></g><g class="sankey-node" transform="translate(481.923,517.717)" style="opacity: 1;"><rect class="node-rect" width="20" height="27.961015303091244" style="stroke-width: 0.8; stroke: rgb(68, 68, 68); stroke-opacity: 1; fill: rgb(171, 99, 250); fill-opacity: 0.8;"/><text class="node-label" data-notex="1" x="0" y="0" text-anchor="start" transform="translate(23.4,19.580507651545624)" style="cursor: default; font-family: 'Open Sans', verdana, arial, sans-serif; font-size: 16px; fill: rgb(42, 63, 95); fill-opacity: 1; text-shadow: rgb(255, 255, 255) 1px 1px 1px, rgb(255, 255, 255) -1px -1px 1px, rgb(255, 255, 255) 1px -1px 1px, rgb(255, 255, 255) -1px 1px 1px; white-space: pre;">CRO | AWaRe: Watch | Class: Third-gen cephalosporin (-lactam)</text></g><g class="sankey-node" transform="translate(615.341,382.056)" style="opacity: 1;"><rect class="node-rect" width="20" height="163.62219203906648" style="stroke-width: 0.8; stroke: rgb(68, 68, 68); stroke-opacity: 1; fill: rgb(255, 161, 90); fill-opacity: 0.8;"/><text class="node-label" data-notex="1" x="0" y="0" text-anchor="start" transform="translate(23.4,87.41109601953323)" style="cursor: default; font-family: 'Open Sans', verdana, arial, sans-serif; font-size: 16px; fill: rgb(42, 63, 95); fill-opacity: 1; text-shadow: rgb(255, 255, 255) 1px 1px 1px, rgb(255, 255, 255) -1px -1px 1px, rgb(255, 255, 255) 1px -1px 1px, rgb(255, 255, 255) -1px 1px 1px; white-space: pre;">CTX | AWaRe: Watch | Class: Third-gen cephalosporin (-lactam)</text></g><g class="sankey-node" transform="translate(748.759,445.016)" style="opacity: 1;"><rect class="node-rect" width="20" height="100.6626002935306" style="stroke-width: 0.8; stroke: rgb(68, 68, 68); stroke-opacity: 1; fill: rgb(25, 211, 243); fill-opacity: 0.8;"/><text class="node-label" data-notex="1" x="0" y="0" text-anchor="start" transform="translate(23.4,55.9313001467653)" style="cursor: default; font-family: 'Open Sans', verdana, arial, sans-serif; font-size: 16px; fill: rgb(42, 63, 95); fill-opacity: 1; text-shadow: rgb(255, 255, 255) 1px 1px 1px, rgb(255, 255, 255) -1px -1px 1px, rgb(255, 255, 255) 1px -1px 1px, rgb(255, 255, 255) -1px 1px 1px; white-space: pre;">LIZ | AWaRe: Reserve | Class: Oxazolidinone</text></g><g class="sankey-node" transform="translate(882.176,303.498)" style="opacity: 1;"><rect class="node-rect" width="20" height="242.18068015599533" style="stroke-width: 0.8; stroke: rgb(68, 68, 68); stroke-opacity: 1; fill: rgb(255, 102, 146); fill-opacity: 0.8;"/><text class="node-label" data-notex="1" x="0" y="0" text-anchor="start" transform="translate(23.4,126.69034007799766)" style="cursor: default; font-family: 'Open Sans', verdana, arial, sans-serif; font-size: 16px; fill: rgb(42, 63, 95); fill-opacity: 1; text-shadow: rgb(255, 255, 255) 1px 1px 1px, rgb(255, 255, 255) -1px -1px 1px, rgb(255, 255, 255) 1px -1px 1px, rgb(255, 255, 255) -1px 1px 1px; white-space: pre;">MER | AWaRe: Watch | Class: Carbapenem (-lactam)</text></g><g class="sankey-node" transform="translate(1015.594,523.562)" style="opacity: 1;"><rect class="node-rect" width="20" height="22.11589298620936" style="stroke-width: 0.8; stroke: rgb(68, 68, 68); stroke-opacity: 1; fill: rgb(182, 232, 128); fill-opacity: 0.8;"/><text class="node-label" data-notex="1" x="0" y="0" text-anchor="start" transform="translate(23.4,16.65794649310468)" style="cursor: default; font-family: 'Open Sans', verdana, arial, sans-serif; font-size: 16px; fill: rgb(42, 63, 95); fill-opacity: 1; text-shadow: rgb(255, 255, 255) 1px 1px 1px, rgb(255, 255, 255) -1px -1px 1px, rgb(255, 255, 255) 1px -1px 1px, rgb(255, 255, 255) -1px 1px 1px; white-space: pre;">PIP | AWaRe: Watch | Class: Penicillin (-lactam)</text></g><g class="sankey-node" transform="translate(1149.011,517.369)" style="opacity: 1;"><rect class="node-rect" width="20" height="28.30891733681642" style="stroke-width: 0.8; stroke: rgb(68, 68, 68); stroke-opacity: 1; fill: rgb(255, 151, 255); fill-opacity: 0.8;"/><text class="node-label" data-notex="1" x="0" y="0" text-anchor="start" transform="translate(23.4,19.754458668408212)" style="cursor: default; font-family: 'Open Sans', verdana, arial, sans-serif; font-size: 16px; fill: rgb(42, 63, 95); fill-opacity: 1; text-shadow: rgb(255, 255, 255) 1px 1px 1px, rgb(255, 255, 255) -1px -1px 1px, rgb(255, 255, 255) 1px -1px 1px, rgb(255, 255, 255) -1px 1px 1px; white-space: pre;">PIT | AWaRe: Watch | Class: -lactam/-lactamase inhibitor</text></g><g class="sankey-node" transform="translate(1282.429,0.000)" style="opacity: 1;"><rect class="node-rect" width="20" height="142.0437984912049" style="stroke-width: 0.8; stroke: rgb(68, 68, 68); stroke-opacity: 1; fill: rgb(254, 203, 82); fill-opacity: 0.8;"/><text class="node-label" data-notex="1" x="0" y="0" text-anchor="end" transform="translate(-3.4,76.62189924560245)" style="cursor: default; font-family: 'Open Sans', verdana, arial, sans-serif; font-size: 16px; fill: rgb(42, 63, 95); fill-opacity: 1; text-shadow: rgb(255, 255, 255) 1px 1px 1px, rgb(255, 255, 255) -1px -1px 1px, rgb(255, 255, 255) 1px -1px 1px, rgb(255, 255, 255) -1px 1px 1px; white-space: pre;">VAN | AWaRe: Watch | Class: Glycopeptide</text></g></g></g><defs id="topdefs-8a16b8"><g class="clips"/></defs><g class="layer-above"><g class="imagelayer"/><g class="shapelayer"/></g><g class="infolayer"><g class="g-gtitle"><text class="gtitle" x="800" y="40" text-anchor="middle" dy="0em" style="opacity: 1; font-family: 'Open Sans', verdana, arial, sans-serif; font-size: 22px; fill: rgb(42, 63, 95); fill-opacity: 1; white-space: pre;">Cross-informative flow: Resistance  Cross-testing (Sankey)</text></g><g class="first-render"/></g></svg>