<?xml version="1.0" encoding="utf-8" standalone="no"?>
<!DOCTYPE svg PUBLIC "-//W3C//DTD SVG 1.1//EN"
  "http://www.w3.org/Graphics/SVG/1.1/DTD/svg11.dtd">
<svg xmlns:xlink="http://www.w3.org/1999/xlink" width="757.080823pt" height="806.4pt" viewBox="0 0 757.080823 806.4" xmlns="http://www.w3.org/2000/svg" version="1.1">
 <metadata>
  <rdf:RDF xmlns:dc="http://purl.org/dc/elements/1.1/" xmlns:cc="http://creativecommons.org/ns#" xmlns:rdf="http://www.w3.org/1999/02/22-rdf-syntax-ns#">
   <cc:Work>
    <dc:type rdf:resource="http://purl.org/dc/dcmitype/StillImage"/>
    <dc:date>2026-01-12T00:17:47.042642</dc:date>
    <dc:format>image/svg+xml</dc:format>
    <dc:creator>
     <cc:Agent>
      <dc:title>Matplotlib v3.10.8, https://matplotlib.org/</dc:title>
     </cc:Agent>
    </dc:creator>
   </cc:Work>
  </rdf:RDF>
 </metadata>
 <defs>
  <style type="text/css">*{stroke-linejoin: round; stroke-linecap: butt}</style>
 </defs>
 <g id="figure_1">
  <g id="patch_1">
   <path d="M 0 806.4 
L 757.080823 806.4 
L 757.080823 0 
L 0 0 
z
" style="fill: #ffffff"/>
  </g>
  <g id="axes_1">
   <g id="PatchCollection_1"/>
   <g id="FillBetweenPolyCollection_1">
    <defs>
     <path id="m669a049498" d="M 374.511036 -384.508594 
L 374.511036 -705.360826 
L 563.103247 -644.083502 
L 679.659643 -483.657386 
L 679.659643 -285.359801 
L 563.103247 -124.933685 
L 374.511036 -63.656362 
L 185.918826 -124.933685 
L 69.36243 -285.359801 
L 69.36243 -483.657386 
L 185.918826 -644.083502 
L 374.511036 -705.360826 
L 374.511036 -384.508594 
L 374.511036 -384.508594 
L 374.511036 -384.508594 
L 374.511036 -384.508594 
L 374.511036 -384.508594 
L 374.511036 -384.508594 
L 374.511036 -384.508594 
L 374.511036 -384.508594 
L 374.511036 -384.508594 
L 374.511036 -384.508594 
L 374.511036 -384.508594 
L 374.511036 -384.508594 
z
"/>
    </defs>
    <g clip-path="url(#p017b7a924e)">
     <use xlink:href="#m669a049498" x="0" y="806.4" style="fill: #eeeeee; fill-opacity: 0.501961"/>
    </g>
   </g>
   <g id="FillBetweenPolyCollection_2">
    <defs>
     <path id="m76ac155674" d="M 374.511036 -384.508594 
L 374.511036 -420.309392 
L 389.950328 -405.758956 
L 667.915825 -479.841589 
L 409.268877 -373.215087 
L 501.927769 -209.134507 
L 374.511036 -329.241011 
L 329.71318 -322.849634 
L 346.644925 -375.454345 
L 363.098423 -388.216777 
L 263.897944 -536.754454 
L 374.511036 -420.309392 
L 374.511036 -384.508594 
L 374.511036 -384.508594 
L 374.511036 -384.508594 
L 374.511036 -384.508594 
L 374.511036 -384.508594 
L 374.511036 -384.508594 
L 374.511036 -384.508594 
L 374.511036 -384.508594 
L 374.511036 -384.508594 
L 374.511036 -384.508594 
L 374.511036 -384.508594 
L 374.511036 -384.508594 
z
"/>
    </defs>
    <g clip-path="url(#p017b7a924e)">
     <use xlink:href="#m76ac155674" x="0" y="806.4" style="fill: #66c2a5; fill-opacity: 0.5"/>
    </g>
   </g>
   <g id="FillBetweenPolyCollection_3">
    <defs>
     <path id="m721c4faac1" d="M 374.511036 -384.508594 
L 374.511036 -448.501404 
L 409.798307 -433.077356 
L 436.242501 -404.566363 
L 409.742025 -373.061352 
L 478.529733 -241.339141 
L 374.511036 -251.146098 
L 185.918826 -124.933685 
L 347.366244 -375.688716 
L 338.84169 -396.098267 
L 338.272248 -434.387007 
L 374.511036 -448.501404 
L 374.511036 -384.508594 
L 374.511036 -384.508594 
L 374.511036 -384.508594 
L 374.511036 -384.508594 
L 374.511036 -384.508594 
L 374.511036 -384.508594 
L 374.511036 -384.508594 
L 374.511036 -384.508594 
L 374.511036 -384.508594 
L 374.511036 -384.508594 
L 374.511036 -384.508594 
L 374.511036 -384.508594 
z
"/>
    </defs>
    <g clip-path="url(#p017b7a924e)">
     <use xlink:href="#m721c4faac1" x="0" y="806.4" style="fill: #fc8d62; fill-opacity: 0.5"/>
    </g>
   </g>
   <g id="line2d_1">
    <path d="M 374.511036 421.891406 
L 374.511036 421.891406 
L 374.511036 421.891406 
L 374.511036 421.891406 
L 374.511036 421.891406 
L 374.511036 421.891406 
L 374.511036 421.891406 
L 374.511036 421.891406 
L 374.511036 421.891406 
L 374.511036 421.891406 
L 374.511036 421.891406 
" clip-path="url(#p017b7a924e)" style="fill: none; stroke-dasharray: 1.85,0.8; stroke-dashoffset: 0; stroke: #808080; stroke-width: 0.5"/>
   </g>
   <g id="line2d_2">
    <path d="M 374.511036 357.72096 
L 412.229478 369.976425 
L 435.540758 402.061648 
L 435.540758 441.721165 
L 412.229478 473.806388 
L 374.511036 486.061853 
L 336.792594 473.806388 
L 313.481315 441.721165 
L 313.481315 402.061648 
L 336.792594 369.976425 
L 374.511036 357.72096 
" clip-path="url(#p017b7a924e)" style="fill: none; stroke-dasharray: 1.85,0.8; stroke-dashoffset: 0; stroke: #808080; stroke-width: 0.5"/>
   </g>
   <g id="line2d_3">
    <path d="M 374.511036 293.550513 
L 449.947921 318.061443 
L 496.570479 382.231889 
L 496.570479 461.550923 
L 449.947921 525.72137 
L 374.511036 550.232299 
L 299.074152 525.72137 
L 252.451594 461.550923 
L 252.451594 382.231889 
L 299.074152 318.061443 
L 374.511036 293.550513 
" clip-path="url(#p017b7a924e)" style="fill: none; stroke-dasharray: 1.85,0.8; stroke-dashoffset: 0; stroke: #808080; stroke-width: 0.5"/>
   </g>
   <g id="line2d_4">
    <path d="M 374.511036 229.380067 
L 487.666363 266.146461 
L 557.6002 362.402131 
L 557.6002 481.380682 
L 487.666363 577.636351 
L 374.511036 614.402746 
L 261.35571 577.636351 
L 191.421873 481.380682 
L 191.421873 362.402131 
L 261.35571 266.146461 
L 374.511036 229.380067 
" clip-path="url(#p017b7a924e)" style="fill: none; stroke-dasharray: 1.85,0.8; stroke-dashoffset: 0; stroke: #808080; stroke-width: 0.5"/>
   </g>
   <g id="line2d_5">
    <path d="M 374.511036 165.209621 
L 525.384805 214.231479 
L 618.629921 342.572372 
L 618.629921 501.21044 
L 525.384805 629.551333 
L 374.511036 678.573192 
L 223.637268 629.551333 
L 130.392152 501.21044 
L 130.392152 342.572372 
L 223.637268 214.231479 
L 374.511036 165.209621 
" clip-path="url(#p017b7a924e)" style="fill: none; stroke-dasharray: 1.85,0.8; stroke-dashoffset: 0; stroke: #808080; stroke-width: 0.5"/>
   </g>
   <g id="line2d_6">
    <path d="M 374.511036 101.039174 
L 563.103247 162.316498 
L 679.659643 322.742614 
L 679.659643 521.040199 
L 563.103247 681.466315 
L 374.511036 742.743638 
L 185.918826 681.466315 
L 69.36243 521.040199 
L 69.36243 322.742614 
L 185.918826 162.316498 
L 374.511036 101.039174 
" clip-path="url(#p017b7a924e)" style="fill: none; stroke-dasharray: 1.85,0.8; stroke-dashoffset: 0; stroke: #808080; stroke-width: 0.5"/>
   </g>
   <g id="line2d_7">
    <path d="M 374.511036 421.891406 
L 374.511036 101.039174 
" clip-path="url(#p017b7a924e)" style="fill: none; stroke-dasharray: 1.85,0.8; stroke-dashoffset: 0; stroke: #808080; stroke-width: 0.5"/>
   </g>
   <g id="line2d_8">
    <path d="M 374.511036 421.891406 
L 563.103247 162.316498 
" clip-path="url(#p017b7a924e)" style="fill: none; stroke-dasharray: 1.85,0.8; stroke-dashoffset: 0; stroke: #808080; stroke-width: 0.5"/>
   </g>
   <g id="line2d_9">
    <path d="M 374.511036 421.891406 
L 679.659643 322.742614 
" clip-path="url(#p017b7a924e)" style="fill: none; stroke-dasharray: 1.85,0.8; stroke-dashoffset: 0; stroke: #808080; stroke-width: 0.5"/>
   </g>
   <g id="line2d_10">
    <path d="M 374.511036 421.891406 
L 679.659643 521.040199 
" clip-path="url(#p017b7a924e)" style="fill: none; stroke-dasharray: 1.85,0.8; stroke-dashoffset: 0; stroke: #808080; stroke-width: 0.5"/>
   </g>
   <g id="line2d_11">
    <path d="M 374.511036 421.891406 
L 563.103247 681.466315 
" clip-path="url(#p017b7a924e)" style="fill: none; stroke-dasharray: 1.85,0.8; stroke-dashoffset: 0; stroke: #808080; stroke-width: 0.5"/>
   </g>
   <g id="line2d_12">
    <path d="M 374.511036 421.891406 
L 374.511036 742.743638 
" clip-path="url(#p017b7a924e)" style="fill: none; stroke-dasharray: 1.85,0.8; stroke-dashoffset: 0; stroke: #808080; stroke-width: 0.5"/>
   </g>
   <g id="line2d_13">
    <path d="M 374.511036 421.891406 
L 185.918826 681.466315 
" clip-path="url(#p017b7a924e)" style="fill: none; stroke-dasharray: 1.85,0.8; stroke-dashoffset: 0; stroke: #808080; stroke-width: 0.5"/>
   </g>
   <g id="line2d_14">
    <path d="M 374.511036 421.891406 
L 69.36243 521.040199 
" clip-path="url(#p017b7a924e)" style="fill: none; stroke-dasharray: 1.85,0.8; stroke-dashoffset: 0; stroke: #808080; stroke-width: 0.5"/>
   </g>
   <g id="line2d_15">
    <path d="M 374.511036 421.891406 
L 69.36243 322.742614 
" clip-path="url(#p017b7a924e)" style="fill: none; stroke-dasharray: 1.85,0.8; stroke-dashoffset: 0; stroke: #808080; stroke-width: 0.5"/>
   </g>
   <g id="line2d_16">
    <path d="M 374.511036 421.891406 
L 185.918826 162.316498 
" clip-path="url(#p017b7a924e)" style="fill: none; stroke-dasharray: 1.85,0.8; stroke-dashoffset: 0; stroke: #808080; stroke-width: 0.5"/>
   </g>
   <g id="line2d_17">
    <path d="M 374.511036 386.090608 
L 389.950328 400.641044 
L 667.915825 326.558411 
L 409.268877 433.184913 
L 501.927769 597.265493 
L 374.511036 477.158989 
L 329.71318 483.550366 
L 346.644925 430.945655 
L 363.098423 418.183223 
L 263.897944 269.645546 
L 374.511036 386.090608 
" clip-path="url(#p017b7a924e)" style="fill: none; stroke: #66c2a5; stroke-linecap: square"/>
   </g>
   <g id="PathCollection_1">
    <defs>
     <path id="m75d19cb4fa" d="M 0 2 
C 0.530406 2 1.03916 1.789267 1.414214 1.414214 
C 1.789267 1.03916 2 0.530406 2 0 
C 2 -0.530406 1.789267 -1.03916 1.414214 -1.414214 
C 1.03916 -1.789267 0.530406 -2 0 -2 
C -0.530406 -2 -1.03916 -1.789267 -1.414214 -1.414214 
C -1.789267 -1.03916 -2 -0.530406 -2 0 
C -2 0.530406 -1.789267 1.03916 -1.414214 1.414214 
C -1.03916 1.789267 -0.530406 2 0 2 
z
"/>
    </defs>
    <g clip-path="url(#p017b7a924e)">
     <use xlink:href="#m75d19cb4fa" x="374.511036" y="386.090608" style="fill: #66c2a5"/>
     <use xlink:href="#m75d19cb4fa" x="389.950328" y="400.641044" style="fill: #66c2a5"/>
     <use xlink:href="#m75d19cb4fa" x="667.915825" y="326.558411" style="fill: #66c2a5"/>
     <use xlink:href="#m75d19cb4fa" x="409.268877" y="433.184913" style="fill: #66c2a5"/>
     <use xlink:href="#m75d19cb4fa" x="501.927769" y="597.265493" style="fill: #66c2a5"/>
     <use xlink:href="#m75d19cb4fa" x="374.511036" y="477.158989" style="fill: #66c2a5"/>
     <use xlink:href="#m75d19cb4fa" x="329.71318" y="483.550366" style="fill: #66c2a5"/>
     <use xlink:href="#m75d19cb4fa" x="346.644925" y="430.945655" style="fill: #66c2a5"/>
     <use xlink:href="#m75d19cb4fa" x="363.098423" y="418.183223" style="fill: #66c2a5"/>
     <use xlink:href="#m75d19cb4fa" x="263.897944" y="269.645546" style="fill: #66c2a5"/>
     <use xlink:href="#m75d19cb4fa" x="374.511036" y="386.090608" style="fill: #66c2a5"/>
    </g>
   </g>
   <g id="line2d_18">
    <path d="M 374.511036 357.898596 
L 409.798307 373.322644 
L 436.242501 401.833637 
L 409.742025 433.338648 
L 478.529733 565.060859 
L 374.511036 555.253902 
L 185.918826 681.466315 
L 347.366244 430.711284 
L 338.84169 410.301733 
L 338.272248 372.012993 
L 374.511036 357.898596 
" clip-path="url(#p017b7a924e)" style="fill: none; stroke: #fc8d62; stroke-linecap: square"/>
   </g>
   <g id="PathCollection_2">
    <defs>
     <path id="m0900aae0b8" d="M 0 2 
C 0.530406 2 1.03916 1.789267 1.414214 1.414214 
C 1.789267 1.03916 2 0.530406 2 0 
C 2 -0.530406 1.789267 -1.03916 1.414214 -1.414214 
C 1.03916 -1.789267 0.530406 -2 0 -2 
C -0.530406 -2 -1.03916 -1.789267 -1.414214 -1.414214 
C -1.789267 -1.03916 -2 -0.530406 -2 0 
C -2 0.530406 -1.789267 1.03916 -1.414214 1.414214 
C -1.03916 1.789267 -0.530406 2 0 2 
z
"/>
    </defs>
    <g clip-path="url(#p017b7a924e)">
     <use xlink:href="#m0900aae0b8" x="374.511036" y="357.898596" style="fill: #fc8d62"/>
     <use xlink:href="#m0900aae0b8" x="409.798307" y="373.322644" style="fill: #fc8d62"/>
     <use xlink:href="#m0900aae0b8" x="436.242501" y="401.833637" style="fill: #fc8d62"/>
     <use xlink:href="#m0900aae0b8" x="409.742025" y="433.338648" style="fill: #fc8d62"/>
     <use xlink:href="#m0900aae0b8" x="478.529733" y="565.060859" style="fill: #fc8d62"/>
     <use xlink:href="#m0900aae0b8" x="374.511036" y="555.253902" style="fill: #fc8d62"/>
     <use xlink:href="#m0900aae0b8" x="185.918826" y="681.466315" style="fill: #fc8d62"/>
     <use xlink:href="#m0900aae0b8" x="347.366244" y="430.711284" style="fill: #fc8d62"/>
     <use xlink:href="#m0900aae0b8" x="338.84169" y="410.301733" style="fill: #fc8d62"/>
     <use xlink:href="#m0900aae0b8" x="338.272248" y="372.012993" style="fill: #fc8d62"/>
     <use xlink:href="#m0900aae0b8" x="374.511036" y="357.898596" style="fill: #fc8d62"/>
    </g>
   </g>
   <g id="text_1">
    <text style="font-size: 10px; font-family: 'DejaVu Sans', 'Bitstream Vera Sans', 'Computer Modern Sans Serif', 'Lucida Grande', 'Verdana', 'Geneva', 'Lucid', 'Arial', 'Helvetica', 'Avant Garde', sans-serif; text-anchor: start; fill: #696969" x="374.511036" y="429.489844" transform="rotate(-0 374.511036 429.489844)">0</text>
   </g>
   <g id="text_2">
    <text style="font-size: 10px; font-family: 'DejaVu Sans', 'Bitstream Vera Sans', 'Computer Modern Sans Serif', 'Lucida Grande', 'Verdana', 'Geneva', 'Lucid', 'Arial', 'Helvetica', 'Avant Garde', sans-serif; text-anchor: start; fill: #696969" x="374.511036" y="365.319397" transform="rotate(-0 374.511036 365.319397)">39.46986</text>
   </g>
   <g id="text_3">
    <text style="font-size: 10px; font-family: 'DejaVu Sans', 'Bitstream Vera Sans', 'Computer Modern Sans Serif', 'Lucida Grande', 'Verdana', 'Geneva', 'Lucid', 'Arial', 'Helvetica', 'Avant Garde', sans-serif; text-anchor: start; fill: #696969" x="374.511036" y="301.148951" transform="rotate(-0 374.511036 301.148951)">78.93972</text>
   </g>
   <g id="text_4">
    <text style="font-size: 10px; font-family: 'DejaVu Sans', 'Bitstream Vera Sans', 'Computer Modern Sans Serif', 'Lucida Grande', 'Verdana', 'Geneva', 'Lucid', 'Arial', 'Helvetica', 'Avant Garde', sans-serif; text-anchor: start; fill: #696969" x="374.511036" y="236.978504" transform="rotate(-0 374.511036 236.978504)">118.40958</text>
   </g>
   <g id="text_5">
    <text style="font-size: 10px; font-family: 'DejaVu Sans', 'Bitstream Vera Sans', 'Computer Modern Sans Serif', 'Lucida Grande', 'Verdana', 'Geneva', 'Lucid', 'Arial', 'Helvetica', 'Avant Garde', sans-serif; text-anchor: start; fill: #696969" x="374.511036" y="172.808058" transform="rotate(-0 374.511036 172.808058)">157.87944</text>
   </g>
   <g id="text_6">
    <text style="font-size: 10px; font-family: 'DejaVu Sans', 'Bitstream Vera Sans', 'Computer Modern Sans Serif', 'Lucida Grande', 'Verdana', 'Geneva', 'Lucid', 'Arial', 'Helvetica', 'Avant Garde', sans-serif; text-anchor: start; fill: #696969" x="374.511036" y="108.637612" transform="rotate(-0 374.511036 108.637612)">197.3493</text>
   </g>
   <g id="text_7">
    <text style="font-size: 12px; font-family: 'DejaVu Sans', 'Bitstream Vera Sans', 'Computer Modern Sans Serif', 'Lucida Grande', 'Verdana', 'Geneva', 'Lucid', 'Arial', 'Helvetica', 'Avant Garde', sans-serif; text-anchor: middle" x="374.511036" y="82.500937" transform="rotate(-0 374.511036 82.500937)">AMC</text>
   </g>
   <g id="text_8">
    <text style="font-size: 12px; font-family: 'DejaVu Sans', 'Bitstream Vera Sans', 'Computer Modern Sans Serif', 'Lucida Grande', 'Verdana', 'Geneva', 'Lucid', 'Arial', 'Helvetica', 'Avant Garde', sans-serif; text-anchor: start" x="572.532857" y="152.649002" transform="rotate(-0 572.532857 152.649002)">AMP</text>
   </g>
   <g id="text_9">
    <text style="font-size: 12px; font-family: 'DejaVu Sans', 'Bitstream Vera Sans', 'Computer Modern Sans Serif', 'Lucida Grande', 'Verdana', 'Geneva', 'Lucid', 'Arial', 'Helvetica', 'Avant Garde', sans-serif; text-anchor: start" x="694.917073" y="321.096424" transform="rotate(-0 694.917073 321.096424)">CIP</text>
   </g>
   <g id="text_10">
    <text style="font-size: 12px; font-family: 'DejaVu Sans', 'Bitstream Vera Sans', 'Computer Modern Sans Serif', 'Lucida Grande', 'Verdana', 'Geneva', 'Lucid', 'Arial', 'Helvetica', 'Avant Garde', sans-serif; text-anchor: start" x="694.917073" y="529.308888" transform="rotate(-0 694.917073 529.308888)">CRO</text>
   </g>
   <g id="text_11">
    <text style="font-size: 12px; font-family: 'DejaVu Sans', 'Bitstream Vera Sans', 'Computer Modern Sans Serif', 'Lucida Grande', 'Verdana', 'Geneva', 'Lucid', 'Arial', 'Helvetica', 'Avant Garde', sans-serif; text-anchor: start" x="572.532857" y="697.75631" transform="rotate(-0 572.532857 697.75631)">CTX</text>
   </g>
   <g id="text_12">
    <text style="font-size: 12px; font-family: 'DejaVu Sans', 'Bitstream Vera Sans', 'Computer Modern Sans Serif', 'Lucida Grande', 'Verdana', 'Geneva', 'Lucid', 'Arial', 'Helvetica', 'Avant Garde', sans-serif; text-anchor: middle" x="374.511036" y="767.904375" transform="rotate(-0 374.511036 767.904375)">LIZ</text>
   </g>
   <g id="text_13">
    <text style="font-size: 12px; font-family: 'DejaVu Sans', 'Bitstream Vera Sans', 'Computer Modern Sans Serif', 'Lucida Grande', 'Verdana', 'Geneva', 'Lucid', 'Arial', 'Helvetica', 'Avant Garde', sans-serif; text-anchor: end" x="176.489216" y="697.75631" transform="rotate(-0 176.489216 697.75631)">MER</text>
   </g>
   <g id="text_14">
    <text style="font-size: 12px; font-family: 'DejaVu Sans', 'Bitstream Vera Sans', 'Computer Modern Sans Serif', 'Lucida Grande', 'Verdana', 'Geneva', 'Lucid', 'Arial', 'Helvetica', 'Avant Garde', sans-serif; text-anchor: end" x="54.105" y="529.308888" transform="rotate(-0 54.105 529.308888)">PIP</text>
   </g>
   <g id="text_15">
    <text style="font-size: 12px; font-family: 'DejaVu Sans', 'Bitstream Vera Sans', 'Computer Modern Sans Serif', 'Lucida Grande', 'Verdana', 'Geneva', 'Lucid', 'Arial', 'Helvetica', 'Avant Garde', sans-serif; text-anchor: end" x="54.105" y="321.096424" transform="rotate(-0 54.105 321.096424)">PIT</text>
   </g>
   <g id="text_16">
    <text style="font-size: 12px; font-family: 'DejaVu Sans', 'Bitstream Vera Sans', 'Computer Modern Sans Serif', 'Lucida Grande', 'Verdana', 'Geneva', 'Lucid', 'Arial', 'Helvetica', 'Avant Garde', sans-serif; text-anchor: end" x="176.489216" y="152.649002" transform="rotate(-0 176.489216 152.649002)">VAN</text>
   </g>
   <g id="text_17">
    <text style="font-weight: 700; font-size: 16px; font-family: 'DejaVu Sans', 'Bitstream Vera Sans', 'Computer Modern Sans Serif', 'Lucida Grande', 'Verdana', 'Geneva', 'Lucid', 'Arial', 'Helvetica', 'Avant Garde', sans-serif; text-anchor: middle" x="374.511036" y="48.1575" transform="rotate(-0 374.511036 48.1575)">Circos radar: R outflow vs T inflow (all antibiotics) — colored by AWaRe</text>
   </g>
   <g id="legend_1">
    <g id="patch_2">
     <path d="M 634.209005 101.595 
L 654.209005 101.595 
L 654.209005 94.595 
L 634.209005 94.595 
z
" style="fill: #2e7d32; stroke: #2e7d32; stroke-linejoin: miter"/>
    </g>
    <g id="text_18">
     <text style="font-size: 10px; font-family: 'DejaVu Sans', 'Bitstream Vera Sans', 'Computer Modern Sans Serif', 'Lucida Grande', 'Verdana', 'Geneva', 'Lucid', 'Arial', 'Helvetica', 'Avant Garde', sans-serif; text-anchor: start" x="662.209005" y="101.595" transform="rotate(-0 662.209005 101.595)">Access</text>
    </g>
    <g id="patch_3">
     <path d="M 634.209005 116.273125 
L 654.209005 116.273125 
L 654.209005 109.273125 
L 634.209005 109.273125 
z
" style="fill: #ef6c00; stroke: #ef6c00; stroke-linejoin: miter"/>
    </g>
    <g id="text_19">
     <text style="font-size: 10px; font-family: 'DejaVu Sans', 'Bitstream Vera Sans', 'Computer Modern Sans Serif', 'Lucida Grande', 'Verdana', 'Geneva', 'Lucid', 'Arial', 'Helvetica', 'Avant Garde', sans-serif; text-anchor: start" x="662.209005" y="116.273125" transform="rotate(-0 662.209005 116.273125)">Watch</text>
    </g>
    <g id="patch_4">
     <path d="M 634.209005 130.95125 
L 654.209005 130.95125 
L 654.209005 123.95125 
L 634.209005 123.95125 
z
" style="fill: #c62828; stroke: #c62828; stroke-linejoin: miter"/>
    </g>
    <g id="text_20">
     <text style="font-size: 10px; font-family: 'DejaVu Sans', 'Bitstream Vera Sans', 'Computer Modern Sans Serif', 'Lucida Grande', 'Verdana', 'Geneva', 'Lucid', 'Arial', 'Helvetica', 'Avant Garde', sans-serif; text-anchor: start" x="662.209005" y="130.95125" transform="rotate(-0 662.209005 130.95125)">Reserve</text>
    </g>
   </g>
  </g>
 </g>
 <defs>
  <clipPath id="p017b7a924e">
   <path d="M 711.40588 421.891406 
C 711.40588 377.650781 702.691442 333.84034 685.761287 292.967331 
C 668.831133 252.094323 644.014511 214.953624 612.731665 183.670778 
C 581.448819 152.387931 544.30812 127.57131 503.435112 110.641156 
C 462.562103 93.711001 418.751662 84.996562 374.511036 84.996562 
C 330.270411 84.996562 286.45997 93.711001 245.586961 110.641156 
C 204.713953 127.57131 167.573254 152.387931 136.290408 183.670778 
C 105.007562 214.953624 80.19094 252.094323 63.260786 292.967331 
C 46.330631 333.84034 37.616193 377.650781 37.616193 421.891406 
C 37.616193 466.132032 46.330631 509.942473 63.260786 550.815481 
C 80.19094 591.68849 105.007562 628.829188 136.290408 660.112035 
C 167.573254 691.394881 204.713953 716.211503 245.586961 733.141657 
C 286.45997 750.071811 330.270411 758.78625 374.511036 758.78625 
C 418.751662 758.78625 462.562103 750.071811 503.435112 733.141657 
C 544.30812 716.211503 581.448819 691.394881 612.731665 660.112035 
C 644.014511 628.829188 668.831133 591.68849 685.761287 550.815481 
C 702.691442 509.942473 711.40588 466.132032 711.40588 421.891406 
M 374.511036 421.891406 
C 374.511036 421.891406 374.511036 421.891406 374.511036 421.891406 
C 374.511036 421.891406 374.511036 421.891406 374.511036 421.891406 
C 374.511036 421.891406 374.511036 421.891406 374.511036 421.891406 
C 374.511036 421.891406 374.511036 421.891406 374.511036 421.891406 
C 374.511036 421.891406 374.511036 421.891406 374.511036 421.891406 
C 374.511036 421.891406 374.511036 421.891406 374.511036 421.891406 
C 374.511036 421.891406 374.511036 421.891406 374.511036 421.891406 
C 374.511036 421.891406 374.511036 421.891406 374.511036 421.891406 
C 374.511036 421.891406 374.511036 421.891406 374.511036 421.891406 
C 374.511036 421.891406 374.511036 421.891406 374.511036 421.891406 
C 374.511036 421.891406 374.511036 421.891406 374.511036 421.891406 
C 374.511036 421.891406 374.511036 421.891406 374.511036 421.891406 
C 374.511036 421.891406 374.511036 421.891406 374.511036 421.891406 
C 374.511036 421.891406 374.511036 421.891406 374.511036 421.891406 
C 374.511036 421.891406 374.511036 421.891406 374.511036 421.891406 
C 374.511036 421.891406 374.511036 421.891406 374.511036 421.891406 
z
"/>
  </clipPath>
 </defs>
</svg>
